<svg width="428" height="926" viewBox="0 0 428 926" fill="none" xmlns="http://www.w3.org/2000/svg">
<g clip-path="url(#clip0_3303_6954)">
<rect width="428" height="926" fill="#1A1A1A"/>
<path fill-rule="evenodd" clip-rule="evenodd" d="M354.804 20.5H353.637C352.993 20.5 352.471 21.0037 352.471 21.625V31.375C352.471 31.9963 352.993 32.5 353.637 32.5H354.804C355.448 32.5 355.971 31.9963 355.971 31.375V21.625C355.971 21.0037 355.448 20.5 354.804 20.5ZM348.147 23.1251H349.314C349.958 23.1251 350.48 23.6288 350.48 24.2501V31.3751C350.48 31.9965 349.958 32.5001 349.314 32.5001H348.147C347.503 32.5001 346.98 31.9965 346.98 31.3751V24.2501C346.98 23.6288 347.503 23.1251 348.147 23.1251ZM343.824 25.7499H342.657C342.013 25.7499 341.49 26.2536 341.49 26.8749V31.3749C341.49 31.9962 342.013 32.4999 342.657 32.4999H343.824C344.468 32.4999 344.99 31.9962 344.99 31.3749V26.8749C344.99 26.2536 344.468 25.7499 343.824 25.7499ZM338.333 27.9999H337.167C336.522 27.9999 336 28.5036 336 29.1249V31.3749C336 31.9962 336.522 32.4999 337.167 32.4999H338.333C338.978 32.4999 339.5 31.9962 339.5 31.3749V29.1249C339.5 28.5036 338.978 27.9999 338.333 27.9999Z" fill="white"/>
<path fill-rule="evenodd" clip-rule="evenodd" d="M370.971 22.846C373.438 22.8461 375.81 23.8167 377.598 25.5571C377.732 25.6915 377.947 25.6898 378.08 25.5533L379.367 24.2234C379.434 24.1542 379.471 24.0604 379.471 23.9629C379.47 23.8653 379.432 23.772 379.364 23.7036C374.672 19.0988 367.27 19.0988 362.578 23.7036C362.51 23.772 362.471 23.8652 362.471 23.9628C362.47 24.0603 362.507 24.1541 362.575 24.2234L363.862 25.5533C363.994 25.69 364.209 25.6917 364.344 25.5571C366.132 23.8166 368.504 22.846 370.971 22.846ZM370.971 27.1727C372.326 27.1726 373.633 27.6884 374.638 28.62C374.774 28.7522 374.988 28.7493 375.12 28.6135L376.405 27.2836C376.473 27.2139 376.511 27.1192 376.51 27.0209C376.509 26.9226 376.469 26.8287 376.4 26.7604C373.341 23.8463 368.604 23.8463 365.545 26.7604C365.476 26.8287 365.436 26.9226 365.435 27.021C365.434 27.1193 365.472 27.214 365.54 27.2836L366.825 28.6135C366.957 28.7493 367.171 28.7522 367.307 28.62C368.311 27.689 369.617 27.1732 370.971 27.1727ZM373.546 30.084C373.548 30.1826 373.51 30.2777 373.441 30.3468L371.218 32.6445C371.153 32.712 371.064 32.75 370.971 32.75C370.878 32.75 370.79 32.712 370.724 32.6445L368.501 30.3468C368.432 30.2776 368.394 30.1825 368.396 30.0839C368.398 29.9853 368.44 29.8919 368.512 29.8258C369.931 28.596 372.011 28.596 373.431 29.8258C373.502 29.892 373.544 29.9854 373.546 30.084Z" fill="white"/>
<rect opacity="0.4" x="386.471" y="20.5" width="24" height="12" rx="3.5" stroke="white"/>
<path opacity="0.5" d="M411.971 24.5V28.5C412.777 28.1612 413.301 27.3731 413.301 26.5C413.301 25.6269 412.777 24.8388 411.971 24.5Z" fill="white"/>
<rect x="387.971" y="22" width="17" height="9" rx="2" fill="white"/>
<path d="M20.5166 20.7231C17.9185 20.7231 16.0674 22.4995 16.0674 24.9316V24.9482C16.0674 27.2227 17.6777 28.8994 19.9771 28.8994C21.6206 28.8994 22.6665 28.061 23.1064 27.1147H23.2725C23.2725 27.2061 23.2642 27.2974 23.2642 27.3887C23.1729 29.6797 22.3677 31.5391 20.4668 31.5391C19.4126 31.5391 18.6738 30.9912 18.3584 30.1528L18.3335 30.0698H16.2251L16.2417 30.1611C16.6235 31.9956 18.2671 33.2988 20.4668 33.2988C23.48 33.2988 25.2979 30.9082 25.2979 26.874V26.8574C25.2979 22.541 23.0732 20.7231 20.5166 20.7231ZM20.5083 27.2559C19.147 27.2559 18.1592 26.2598 18.1592 24.8735V24.8569C18.1592 23.5205 19.2134 22.4663 20.5332 22.4663C21.8613 22.4663 22.8989 23.5371 22.8989 24.9067V24.9233C22.8989 26.2764 21.8613 27.2559 20.5083 27.2559ZM28.5664 25.2388C29.3301 25.2388 29.8862 24.6577 29.8862 23.9272C29.8862 23.1885 29.3301 22.6157 28.5664 22.6157C27.811 22.6157 27.2466 23.1885 27.2466 23.9272C27.2466 24.6577 27.811 25.2388 28.5664 25.2388ZM28.5664 31.3979C29.3301 31.3979 29.8862 30.8252 29.8862 30.0864C29.8862 29.3477 29.3301 28.7749 28.5664 28.7749C27.811 28.7749 27.2466 29.3477 27.2466 30.0864C27.2466 30.8252 27.811 31.3979 28.5664 31.3979ZM37.6455 33H39.6958V30.7007H41.3062V28.9326H39.6958V21.022H36.666C35.0391 23.4956 33.3374 26.2515 31.7852 28.9492V30.7007H37.6455V33ZM33.7773 28.9824V28.8579C34.9395 26.8242 36.3257 24.6079 37.5542 22.7319H37.6787V28.9824H33.7773ZM45.77 33H47.9116V21.022H45.7783L42.6489 23.2217V25.2388L45.6289 23.1304H45.77V33Z" fill="white"/>
<path d="M17.8769 89V76.31H20.6129V89H17.8769ZM23.2671 89V79.352H25.6971V80.954H25.8051C26.3271 79.784 27.2631 79.136 28.5051 79.136C29.8551 79.136 30.7731 79.766 31.2231 80.954H31.3311C31.8171 79.802 32.8071 79.136 34.0311 79.136C35.7951 79.136 36.9651 80.342 36.9651 82.52V89H34.3011V82.988C34.3011 81.836 33.7971 81.206 32.9151 81.206C31.9611 81.206 31.4571 81.89 31.4571 83.078V89H28.7931V82.988C28.7931 81.854 28.2891 81.206 27.4251 81.206C26.4711 81.206 25.9311 81.926 25.9311 83.132V89H23.2671ZM39.2456 92.6V79.352H41.7656V80.9H41.8736C42.3236 79.892 43.4036 79.136 44.7716 79.136C47.1656 79.136 48.7856 81.08 48.7856 84.194C48.7856 87.272 47.1656 89.216 44.8256 89.216C43.4576 89.216 42.4676 88.442 42.0176 87.434H41.9096V92.6H39.2456ZM41.7656 84.194C41.7656 86.03 42.5756 87.272 43.9256 87.272C45.2756 87.272 46.0496 86.084 46.0496 84.194C46.0496 82.286 45.2756 81.098 43.9256 81.098C42.5576 81.098 41.7656 82.286 41.7656 84.194ZM55.0818 89.216C52.0758 89.216 50.1138 87.146 50.1138 84.194C50.1138 81.206 52.0758 79.136 55.0818 79.136C58.0878 79.136 60.0498 81.206 60.0498 84.194C60.0498 87.146 58.0878 89.216 55.0818 89.216ZM52.8498 84.194C52.8498 86.318 53.7498 87.272 55.0818 87.272C56.3958 87.272 57.3138 86.318 57.3138 84.194C57.3138 82.052 56.3958 81.098 55.0818 81.098C53.7498 81.098 52.8498 82.052 52.8498 84.194ZM61.8862 89V79.352H64.3342V81.26H64.4422C64.7662 79.982 65.7742 79.136 67.0162 79.136C67.2502 79.136 67.4482 79.172 67.5922 79.208V81.62C67.3582 81.53 67.0522 81.512 66.6202 81.512C65.3602 81.512 64.5502 82.358 64.5502 83.672V89H61.8862ZM72.9427 89.18C71.0707 89.18 70.0627 88.244 70.0627 86.444V81.17H68.5507V79.352H70.0627V77.48L72.7267 76.328V79.352H74.5267V81.17H72.7267V86.102C72.7267 86.804 73.0687 87.146 73.6987 87.146C73.9327 87.146 74.2027 87.11 74.5267 87.02V88.892C73.9867 89.108 73.5007 89.18 72.9427 89.18ZM85.4996 89.306C82.8536 89.306 80.9276 88.172 80.2616 86.102L82.7816 85.094C83.2136 86.498 84.2036 87.254 85.6076 87.254C86.9756 87.254 87.7676 86.606 87.7676 85.472C87.7676 84.572 87.2096 84.104 86.1116 83.852L84.1136 83.348C82.0796 82.844 80.9096 81.656 80.9096 79.892C80.9096 77.552 82.8176 76.004 85.7876 76.004C88.1456 76.004 89.9276 76.976 90.5936 78.614L88.2176 79.64C87.7676 78.524 86.9936 78.038 85.7336 78.038C84.5096 78.038 83.7356 78.632 83.7356 79.532C83.7356 80.414 84.2756 80.81 85.4096 81.116L87.5336 81.674C89.4416 82.16 90.5756 83.384 90.5756 85.184C90.5756 87.704 88.6496 89.306 85.4996 89.306ZM96.9353 89.216C93.9293 89.216 91.9673 87.146 91.9673 84.194C91.9673 81.206 93.9293 79.136 96.9353 79.136C99.9413 79.136 101.903 81.206 101.903 84.194C101.903 87.146 99.9413 89.216 96.9353 89.216ZM94.7033 84.194C94.7033 86.318 95.6033 87.272 96.9353 87.272C98.2493 87.272 99.1673 86.318 99.1673 84.194C99.1673 82.052 98.2493 81.098 96.9353 81.098C95.6033 81.098 94.7033 82.052 94.7033 84.194ZM107.88 89.216C105.216 89.216 103.632 87.974 103.632 85.274V79.352H106.296V85.184C106.296 86.498 106.836 87.146 107.88 87.146C108.852 87.146 109.464 86.498 109.464 85.184V79.352H112.128V85.274C112.128 87.974 110.454 89.216 107.88 89.216ZM120.422 83.114C120.422 81.836 119.828 81.206 118.856 81.206C117.758 81.206 117.074 81.962 117.074 83.222V89H114.41V79.352H116.858V81.008H116.966C117.452 79.874 118.514 79.136 119.882 79.136C121.826 79.136 123.086 80.27 123.086 82.736V89H120.422V83.114ZM129.716 87.272C131.084 87.272 131.858 86.066 131.858 84.176C131.858 82.34 131.048 81.098 129.716 81.098C128.348 81.098 127.574 82.286 127.574 84.176C127.574 86.066 128.348 87.272 129.716 87.272ZM124.838 84.176C124.838 81.08 126.458 79.136 128.816 79.136C130.184 79.136 131.156 79.928 131.606 80.936H131.714V75.77H134.378V89H131.858V87.452H131.768C131.3 88.46 130.22 89.216 128.852 89.216C126.458 89.216 124.838 87.272 124.838 84.176Z" fill="white"/>
<path d="M405.25 88.25L394.75 77.75M405.25 77.75L394.75 88.25" stroke="#A6A6A6" stroke-width="2" stroke-linecap="round" stroke-linejoin="round"/>
<g clip-path="url(#clip1_3303_6954)">
<rect x="16" y="119" width="396" height="194" rx="8" fill="#20D5EC" fill-opacity="0.2"/>
<path d="M98.3295 157.169H93.1849V177.888H86.748V157.169H80.3233L80.311 151.49H100.151L98.3295 157.169Z" fill="white"/>
<path d="M151.117 157.169H145.53V177.888H139.105V157.169H132.656L132.644 151.49H152.939L151.117 157.169Z" fill="white"/>
<path d="M107.72 177.887H101.407L101.357 159.886H107.72V177.887Z" fill="white"/>
<path d="M116.594 163.713L122.895 157.62H130.477L122.514 165.273L131.437 177.888H124.434L118.477 169.125L116.594 170.928V177.888H110.243V151.416H116.594V163.713Z" fill="white"/>
<path d="M183.979 163.713L190.268 157.62H197.85L189.887 165.273L198.748 177.888H191.745L185.8 169.125L183.979 170.928V177.888H177.616L177.554 151.416H183.979V163.713Z" fill="white"/>
<path d="M104.545 157.827C106.312 157.827 107.745 156.408 107.745 154.658C107.745 152.908 106.312 151.49 104.545 151.49C102.777 151.49 101.345 152.908 101.345 154.658C101.345 156.408 102.777 157.827 104.545 157.827Z" fill="white"/>
<path d="M152.126 167.114C152.128 161.491 156.496 156.815 162.157 156.376C161.874 156.376 161.492 156.376 161.209 156.376C155.456 156.709 150.963 161.425 150.963 167.132C150.963 172.838 155.456 177.555 161.209 177.887C161.492 177.887 161.874 177.887 162.157 177.887C156.482 177.447 152.109 172.75 152.126 167.114Z" fill="#25F4EE"/>
<path d="M164.631 156.34C164.336 156.34 163.954 156.34 163.671 156.34C169.313 156.801 173.655 161.471 173.655 167.077C173.655 172.683 169.313 177.353 163.671 177.814C163.954 177.814 164.336 177.814 164.631 177.814C170.64 177.814 175.511 172.991 175.511 167.041C175.511 161.09 170.64 156.267 164.631 156.267V156.34Z" fill="#FE2C55"/>
<path d="M162.908 172.354C159.985 172.354 157.616 170.008 157.616 167.114C157.616 164.22 159.985 161.873 162.908 161.873C165.831 161.873 168.2 164.22 168.2 167.114C168.193 170.005 165.828 172.348 162.908 172.354ZM162.908 156.34C156.899 156.34 152.028 161.164 152.028 167.114C152.028 173.064 156.899 177.888 162.908 177.888C168.917 177.888 173.788 173.064 173.788 167.114C173.788 164.256 172.642 161.516 170.601 159.496C168.561 157.475 165.793 156.34 162.908 156.34Z" fill="white"/>
<path d="M53.5329 157.027V155.54C53.0117 155.459 52.4852 155.414 51.9575 155.406C46.8488 155.396 42.3259 158.674 40.7919 163.499C39.2578 168.324 41.0686 173.577 45.2621 176.466C42.1209 173.137 41.2486 168.291 43.0351 164.092C44.8215 159.894 48.9329 157.127 53.5329 157.027Z" fill="#25F4EE"/>
<path d="M53.816 173.87C56.6723 173.867 59.0202 171.638 59.1452 168.812V143.597H63.7975C63.7026 143.07 63.6572 142.535 63.6621 142H57.2991V167.192C57.1933 170.032 54.8399 172.281 51.9698 172.286C51.1122 172.279 50.2685 172.07 49.5083 171.677C50.5076 173.048 52.1085 173.863 53.816 173.87Z" fill="#25F4EE"/>
<path d="M72.4866 152.152V150.751C70.7745 150.751 69.1003 150.251 67.6743 149.312C68.9244 150.751 70.6136 151.748 72.4866 152.152Z" fill="#25F4EE"/>
<path d="M67.6743 149.313C66.2696 147.729 65.4952 145.692 65.4958 143.584H63.7974C64.2407 145.94 65.6426 148.011 67.6743 149.313Z" fill="#FE2C55"/>
<path d="M51.9577 161.707C49.5066 161.72 47.3786 163.382 46.7964 165.74C46.2142 168.098 47.3274 170.545 49.4962 171.676C48.321 170.07 48.155 167.946 49.0665 166.18C49.9779 164.413 51.8128 163.302 53.8162 163.304C54.3503 163.31 54.8808 163.392 55.3916 163.547V157.137C54.87 157.059 54.3435 157.019 53.8162 157.015H53.5331V161.89C53.0197 161.754 52.489 161.692 51.9577 161.707Z" fill="#FE2C55"/>
<path d="M72.4868 152.152V157.027C69.3172 157.021 66.2299 156.028 63.6622 154.187V166.996C63.6486 173.388 58.4123 178.562 51.9576 178.562C49.5605 178.567 47.2211 177.834 45.2622 176.466C48.5314 179.948 53.6192 181.094 58.0877 179.355C62.5562 177.617 65.495 173.347 65.4961 168.593V155.821C68.0724 157.649 71.1635 158.629 74.333 158.624V152.347C73.7125 152.345 73.0938 152.28 72.4868 152.152Z" fill="#FE2C55"/>
<path d="M63.6622 166.997V154.188C66.2377 156.017 69.3294 156.998 72.4991 156.991V152.116C70.6265 151.724 68.9332 150.74 67.6745 149.313C65.6428 148.011 64.2409 145.94 63.7976 143.584H59.1453V168.813C59.0522 171.063 57.5298 173.009 55.352 173.66C53.1743 174.311 50.819 173.525 49.4837 171.701C47.3149 170.57 46.2018 168.123 46.784 165.765C47.3661 163.407 49.4941 161.744 51.9453 161.732C52.4796 161.736 53.0103 161.818 53.5206 161.975V157.1C48.8949 157.178 44.7524 159.955 42.9609 164.179C41.1694 168.402 42.0673 173.275 45.2499 176.6C47.2281 177.923 49.5709 178.609 51.9576 178.563C58.4122 178.563 63.6486 173.388 63.6622 166.997Z" fill="white"/>
<path d="M47.9786 205.408C44.4506 205.408 41.8826 203.896 40.9946 201.136L44.3546 199.792C44.9306 201.664 46.2506 202.672 48.1226 202.672C49.9466 202.672 51.0026 201.808 51.0026 200.296C51.0026 199.096 50.2586 198.472 48.7946 198.136L46.1306 197.464C43.4186 196.792 41.8586 195.208 41.8586 192.856C41.8586 189.736 44.4026 187.672 48.3626 187.672C51.5066 187.672 53.8826 188.968 54.7706 191.152L51.6026 192.52C51.0026 191.032 49.9706 190.384 48.2906 190.384C46.6586 190.384 45.6266 191.176 45.6266 192.376C45.6266 193.552 46.3466 194.08 47.8586 194.488L50.6906 195.232C53.2346 195.88 54.7466 197.512 54.7466 199.912C54.7466 203.272 52.1786 205.408 47.9786 205.408ZM63.2263 205.288C59.2183 205.288 56.6023 202.528 56.6023 198.592C56.6023 194.608 59.2183 191.848 63.2263 191.848C67.2343 191.848 69.8503 194.608 69.8503 198.592C69.8503 202.528 67.2343 205.288 63.2263 205.288ZM60.2503 198.592C60.2503 201.424 61.4503 202.696 63.2263 202.696C64.9783 202.696 66.2023 201.424 66.2023 198.592C66.2023 195.736 64.9783 194.464 63.2263 194.464C61.4503 194.464 60.2503 195.736 60.2503 198.592ZM77.8194 205.288C74.2674 205.288 72.1554 203.632 72.1554 200.032V192.136H75.7074V199.912C75.7074 201.664 76.4274 202.528 77.8194 202.528C79.1154 202.528 79.9314 201.664 79.9314 199.912V192.136H83.4834V200.032C83.4834 203.632 81.2514 205.288 77.8194 205.288ZM94.5414 197.152C94.5414 195.448 93.7494 194.608 92.4534 194.608C90.9894 194.608 90.0774 195.616 90.0774 197.296V205H86.5254V192.136H89.7894V194.344H89.9334C90.5814 192.832 91.9974 191.848 93.8214 191.848C96.4134 191.848 98.0934 193.36 98.0934 196.648V205H94.5414V197.152ZM106.934 202.696C108.758 202.696 109.79 201.088 109.79 198.568C109.79 196.12 108.71 194.464 106.934 194.464C105.11 194.464 104.078 196.048 104.078 198.568C104.078 201.088 105.11 202.696 106.934 202.696ZM100.43 198.568C100.43 194.44 102.59 191.848 105.734 191.848C107.558 191.848 108.854 192.904 109.454 194.248H109.598V187.36H113.15V205H109.79V202.936H109.67C109.046 204.28 107.606 205.288 105.782 205.288C102.59 205.288 100.43 202.696 100.43 198.568ZM122.698 205V188.08H126.346V205H122.698ZM129.885 205V192.136H133.125V194.272H133.269C133.965 192.712 135.213 191.848 136.869 191.848C138.669 191.848 139.893 192.688 140.493 194.272H140.637C141.285 192.736 142.605 191.848 144.237 191.848C146.589 191.848 148.149 193.456 148.149 196.36V205H144.597V196.984C144.597 195.448 143.925 194.608 142.749 194.608C141.477 194.608 140.805 195.52 140.805 197.104V205H137.253V196.984C137.253 195.472 136.581 194.608 135.429 194.608C134.157 194.608 133.437 195.568 133.437 197.176V205H129.885ZM151.189 209.8V192.136H154.549V194.2H154.693C155.293 192.856 156.733 191.848 158.557 191.848C161.749 191.848 163.909 194.44 163.909 198.592C163.909 202.696 161.749 205.288 158.629 205.288C156.805 205.288 155.485 204.256 154.885 202.912H154.741V209.8H151.189ZM154.549 198.592C154.549 201.04 155.629 202.696 157.429 202.696C159.229 202.696 160.261 201.112 160.261 198.592C160.261 196.048 159.229 194.464 157.429 194.464C155.605 194.464 154.549 196.048 154.549 198.592ZM172.304 205.288C168.296 205.288 165.68 202.528 165.68 198.592C165.68 194.608 168.296 191.848 172.304 191.848C176.312 191.848 178.928 194.608 178.928 198.592C178.928 202.528 176.312 205.288 172.304 205.288ZM169.328 198.592C169.328 201.424 170.528 202.696 172.304 202.696C174.056 202.696 175.28 201.424 175.28 198.592C175.28 195.736 174.056 194.464 172.304 194.464C170.528 194.464 169.328 195.736 169.328 198.592ZM181.377 205V192.136H184.641V194.68H184.785C185.217 192.976 186.561 191.848 188.217 191.848C188.529 191.848 188.793 191.896 188.985 191.944V195.16C188.673 195.04 188.265 195.016 187.689 195.016C186.009 195.016 184.929 196.144 184.929 197.896V205H181.377ZM196.119 205.24C193.623 205.24 192.279 203.992 192.279 201.592V194.56H190.263V192.136H192.279V189.64L195.831 188.104V192.136H198.231V194.56H195.831V201.136C195.831 202.072 196.287 202.528 197.127 202.528C197.439 202.528 197.799 202.48 198.231 202.36V204.856C197.511 205.144 196.863 205.24 196.119 205.24Z" fill="white"/>
<path d="M44.016 259V248.952H40.528V247.72H48.912V248.952H45.424V259H44.016ZM49.309 259V250.536H50.573V252.168H50.621C50.909 251.064 51.773 250.344 52.845 250.344C53.053 250.344 53.261 250.376 53.389 250.424V251.656C53.245 251.624 53.037 251.608 52.797 251.608C51.549 251.608 50.669 252.552 50.669 253.896V259H49.309ZM54.7778 259V250.536H56.1378V259H54.7778ZM54.7778 249.464L56.5378 246.824H57.9938L56.1538 249.464H54.7778ZM61.9678 259.192C59.7598 259.192 58.0638 257.576 58.0638 254.76C58.0638 251.944 59.7598 250.344 61.9198 250.344C63.5198 250.344 64.6558 250.968 65.2318 252.44L64.0638 252.952C63.6158 251.944 62.9278 251.496 61.8878 251.496C60.6558 251.496 59.4718 252.456 59.4718 254.76C59.4718 257.08 60.6718 258.04 61.9358 258.04C62.9918 258.04 63.6798 257.576 64.1118 256.552L65.2638 257.048C64.7038 258.504 63.5838 259.192 61.9678 259.192ZM66.8246 259V247.24H68.1846V251.88H68.2486C68.6806 250.936 69.5926 250.344 70.7926 250.344C72.6166 250.344 73.7366 251.384 73.7366 253.432V259H72.3766V253.592C72.3766 252.168 71.5766 251.512 70.4406 251.512C69.0806 251.512 68.1846 252.328 68.1846 253.88V259H66.8246ZM88.0206 259L84.6286 253.672H84.5486L81.2046 259H79.5566L83.5886 252.888L80.1326 247.72H81.8286L84.5486 252.056H84.6286L87.3646 247.72H89.0606L85.5886 252.856L89.6686 259H88.0206ZM94.1523 259.192C91.9923 259.192 90.7603 258.088 90.7603 255.704V250.536H92.1203V255.688C92.1203 257.32 92.9363 258.024 94.1523 258.024C95.3523 258.024 96.1843 257.32 96.1843 255.688V250.536H97.5443V255.704C97.5443 258.088 96.2963 259.192 94.1523 259.192ZM105.265 259L104.785 257.656H104.705C104.225 258.584 103.281 259.192 102.161 259.192C100.465 259.192 99.3614 258.232 99.3614 256.776C99.3614 255.4 100.401 254.44 102.289 254.184L104.721 253.848V253.256C104.721 252.168 104.113 251.464 102.881 251.464C101.793 251.464 101.153 251.896 100.881 252.888L99.6014 252.52C99.9694 251.16 101.249 250.344 102.897 250.344C105.041 250.344 106.081 251.448 106.081 253.288V257.288L106.705 259H105.265ZM100.273 249.464L102.113 247.432H103.713L105.553 249.464H104.161L102.913 248.104L101.665 249.464H100.273ZM100.753 256.744C100.753 257.592 101.361 258.104 102.417 258.104C103.809 258.104 104.721 257.08 104.721 255.48V254.84L102.641 255.128C101.361 255.288 100.753 255.832 100.753 256.744ZM104.561 247.624L106.177 245.64H107.665L105.969 247.624H104.561ZM111.35 259.16C109.926 259.16 109.174 258.408 109.174 256.792V251.576H107.606V250.536H109.174V248.632L110.534 247.768V250.536H112.486V251.576H110.534V256.648C110.534 257.576 110.934 258.008 111.654 258.008C111.878 258.008 112.166 257.976 112.486 257.816V258.936C112.118 259.112 111.766 259.16 111.35 259.16ZM117.697 259L121.569 247.72H123.761L127.633 259H126.129L125.057 255.704H120.273L119.201 259H117.697ZM120.177 246.776L121.857 244.52H123.457L125.137 246.776H123.793L122.657 245.24L121.521 246.776H120.177ZM120.657 254.52H124.673L122.705 248.52H122.625L120.657 254.52ZM129.231 259V250.536H130.479V251.928H130.559C130.991 250.904 131.855 250.344 132.975 250.344C134.159 250.344 134.991 250.92 135.391 251.928H135.471C135.903 250.936 136.815 250.344 137.951 250.344C139.455 250.344 140.607 251.288 140.607 253.32V259H139.247V253.448C139.247 252.216 138.607 251.512 137.471 251.512C136.287 251.512 135.599 252.312 135.599 253.704V259H134.239V253.448C134.239 252.232 133.599 251.512 132.527 251.512C131.327 251.512 130.591 252.392 130.591 253.832V259H129.231ZM150.047 259V248.952H146.559V247.72H154.943V248.952H151.455V259H150.047ZM156.387 259V247.24H157.747V251.88H157.811C158.243 250.936 159.155 250.344 160.355 250.344C162.179 250.344 163.299 251.384 163.299 253.432V259H161.939V253.592C161.939 252.168 161.139 251.512 160.003 251.512C158.643 251.512 157.747 252.328 157.747 253.88V259H156.387ZM171.062 259L170.582 257.656H170.502C170.022 258.584 169.078 259.192 167.958 259.192C166.262 259.192 165.158 258.232 165.158 256.776C165.158 255.4 166.198 254.44 168.086 254.184L170.518 253.848V253.256C170.518 252.168 169.91 251.464 168.678 251.464C167.59 251.464 166.95 251.896 166.678 252.888L165.398 252.52C165.766 251.16 167.046 250.344 168.694 250.344C170.838 250.344 171.878 251.448 171.878 253.288V257.288L172.502 259H171.062ZM166.55 256.744C166.55 257.592 167.158 258.104 168.214 258.104C169.606 258.104 170.518 257.08 170.518 255.48V254.84L168.438 255.128C167.158 255.288 166.55 255.832 166.55 256.744ZM179.861 253.592C179.861 252.168 179.061 251.512 177.925 251.512C176.565 251.512 175.669 252.44 175.669 253.88V259H174.309V250.536H175.573V252.04H175.621C176.069 251 176.997 250.344 178.277 250.344C180.101 250.344 181.221 251.384 181.221 253.432V259H179.861V253.592ZM183.512 259V247.24H184.872V251.88H184.936C185.368 250.936 186.28 250.344 187.48 250.344C189.304 250.344 190.424 251.384 190.424 253.432V259H189.064V253.592C189.064 252.168 188.264 251.512 187.128 251.512C185.768 251.512 184.872 252.328 184.872 253.88V259H183.512Z" fill="white"/>
<path d="M41.312 285V273.72H42.72V279.096H42.784L47.84 273.72H49.68L45.392 278.184L49.968 285H48.32L44.368 279.128L42.72 280.84V285H41.312ZM51.5746 285V273.24H52.9346V277.88H52.9986C53.4306 276.936 54.3426 276.344 55.5426 276.344C57.3666 276.344 58.4866 277.384 58.4866 279.432V285H57.1266V279.592C57.1266 278.168 56.3266 277.512 55.1906 277.512C53.8306 277.512 52.9346 278.328 52.9346 279.88V285H51.5746ZM64.3458 285.192C62.0418 285.192 60.3138 283.496 60.3138 280.776C60.3138 278.056 62.0418 276.344 64.3458 276.344C64.6498 276.344 64.9378 276.376 65.2258 276.44C67.5778 276.68 67.9458 275.512 67.9458 274.168H69.2738C69.2738 275.72 68.6178 277 67.0338 277.352C67.8658 278.12 68.3778 279.304 68.3778 280.776C68.3778 283.496 66.6338 285.192 64.3458 285.192ZM61.7218 280.776C61.7218 283.032 62.9218 284.04 64.3458 284.04C65.7698 284.04 66.9538 283.032 66.9538 280.776C66.9538 278.52 65.7698 277.496 64.3458 277.496C62.9218 277.496 61.7218 278.52 61.7218 280.776ZM70.3246 285V276.536H71.6846V285H70.3246ZM70.1326 274.072C70.1326 273.544 70.5326 273.176 71.0286 273.176C71.5246 273.176 71.9086 273.544 71.9086 274.072C71.9086 274.584 71.5246 274.952 71.0286 274.952C70.5326 274.952 70.1326 274.584 70.1326 274.072ZM78.4995 285V273.72H80.9315L85.7315 284.104H85.7955V273.72H87.1395V285H84.7075L79.9075 274.616H79.8435V285H78.4995ZM93.0451 288.392C91.2531 288.392 89.9571 287.768 89.3651 286.28L90.5651 285.784C90.9651 286.744 91.7491 287.304 93.0451 287.304C94.6771 287.304 95.5571 286.328 95.5571 284.44V283.128H95.4931C94.9331 284.168 93.9251 284.856 92.7571 284.856C90.6451 284.856 89.2051 283.16 89.2051 280.6C89.2051 278.04 90.6451 276.344 92.7891 276.344C94.0371 276.344 95.0451 276.952 95.5731 278.008H95.6371V276.536H96.9011V284.632C96.9011 286.984 95.4931 288.392 93.0451 288.392ZM90.6451 280.6C90.6451 282.504 91.5891 283.72 93.1251 283.72C94.6771 283.72 95.6371 282.488 95.6371 280.6C95.6371 278.712 94.6771 277.496 93.1251 277.496C91.5891 277.496 90.6451 278.696 90.6451 280.6ZM102.59 285.192C100.43 285.192 99.1978 284.088 99.1978 281.704V276.536H100.558V281.688C100.558 283.32 101.374 284.024 102.59 284.024C103.79 284.024 104.622 283.32 104.622 281.688V276.536H105.982V281.704C105.982 284.088 104.734 285.192 102.59 285.192ZM111.83 285.192C109.526 285.192 107.798 283.496 107.798 280.776C107.798 278.056 109.526 276.344 111.83 276.344C114.118 276.344 115.862 278.056 115.862 280.776C115.862 283.496 114.118 285.192 111.83 285.192ZM107.078 271.64H108.566L110.182 273.624H108.79L107.078 271.64ZM109.19 275.464L111.03 273.432H112.63L114.47 275.464H113.078L111.83 274.104L110.582 275.464H109.19ZM109.206 280.776C109.206 283.032 110.406 284.04 111.83 284.04C113.254 284.04 114.438 283.032 114.438 280.776C114.438 278.52 113.254 277.496 111.83 277.496C110.406 277.496 109.206 278.52 109.206 280.776ZM123.314 279.592C123.314 278.168 122.514 277.512 121.378 277.512C120.018 277.512 119.122 278.44 119.122 279.88V285H117.762V276.536H119.026V278.04H119.074C119.522 277 120.45 276.344 121.73 276.344C123.554 276.344 124.674 277.384 124.674 279.432V285H123.314V279.592ZM135.998 285.272C133.006 285.272 130.974 282.952 130.974 279.368C130.974 275.768 132.99 273.464 135.982 273.464C138.318 273.464 139.838 274.488 140.526 276.52L139.166 276.984C138.67 275.464 137.598 274.696 135.982 274.696C133.79 274.696 132.446 276.488 132.446 279.368C132.446 282.248 133.806 284.024 135.998 284.024C137.614 284.024 138.67 283.256 139.182 281.72L140.526 282.168C139.822 284.216 138.286 285.272 135.998 285.272ZM147.859 285L147.379 283.656H147.299C146.819 284.584 145.875 285.192 144.755 285.192C143.059 285.192 141.955 284.232 141.955 282.776C141.955 281.4 142.995 280.44 144.883 280.184L147.315 279.848V279.256C147.315 278.168 146.707 277.464 145.475 277.464C144.387 277.464 143.747 277.896 143.475 278.888L142.195 278.52C142.563 277.16 143.843 276.344 145.491 276.344C147.635 276.344 148.675 277.448 148.675 279.288V283.288L149.299 285H147.859ZM143.347 282.744C143.347 283.592 143.955 284.104 145.011 284.104C146.403 284.104 147.315 283.08 147.315 281.48V280.84L145.235 281.128C143.955 281.288 143.347 281.832 143.347 282.744ZM144.003 273.208V272.328C144.467 272.104 145.043 271.96 145.603 271.96C146.739 271.96 147.475 272.616 147.475 273.608C147.475 274.328 147.059 274.92 146.211 275.464H144.819C145.843 274.728 146.291 274.232 146.291 273.736C146.291 273.272 145.939 272.904 145.251 272.904C144.867 272.904 144.371 273.016 144.003 273.208ZM151.106 285V276.536H152.354V277.928H152.434C152.866 276.904 153.73 276.344 154.85 276.344C156.034 276.344 156.866 276.92 157.266 277.928H157.346C157.778 276.936 158.69 276.344 159.826 276.344C161.33 276.344 162.482 277.288 162.482 279.32V285H161.122V279.448C161.122 278.216 160.482 277.512 159.346 277.512C158.162 277.512 157.474 278.312 157.474 279.704V285H156.114V279.448C156.114 278.232 155.474 277.512 154.402 277.512C153.202 277.512 152.466 278.392 152.466 279.832V285H151.106ZM176.61 285V279.672H170.626V285H169.218V273.72H170.626V278.456H176.61V273.72H178.018V285H176.61ZM183.824 285.192C181.664 285.192 180.432 284.088 180.432 281.704V276.536H181.792V281.688C181.792 283.32 182.608 284.024 183.824 284.024C185.024 284.024 185.856 283.32 185.856 281.688V276.536C187.52 276.52 188.032 275.512 188.032 274.152H189.36C189.36 275.736 188.592 276.952 187.216 277.304V281.704C187.216 284.088 185.968 285.192 183.824 285.192ZM183.136 275.464L184.896 272.824H186.352L184.512 275.464H183.136ZM195.158 279.592C195.158 278.168 194.358 277.512 193.222 277.512C191.862 277.512 190.966 278.44 190.966 279.88V285H189.606V276.536H190.87V278.04H190.918C191.366 277 192.294 276.344 193.574 276.344C195.398 276.344 196.518 277.384 196.518 279.432V285H195.158V279.592ZM202.217 288.392C200.425 288.392 199.129 287.768 198.537 286.28L199.737 285.784C200.137 286.744 200.921 287.304 202.217 287.304C203.849 287.304 204.729 286.328 204.729 284.44V283.128H204.665C204.105 284.168 203.097 284.856 201.929 284.856C199.817 284.856 198.377 283.16 198.377 280.6C198.377 278.04 199.817 276.344 201.961 276.344C203.209 276.344 204.217 276.952 204.745 278.008H204.809V276.536H206.073V284.632C206.073 286.984 204.665 288.392 202.217 288.392ZM199.817 280.6C199.817 282.504 200.761 283.72 202.297 283.72C203.849 283.72 204.809 282.488 204.809 280.6C204.809 278.712 203.849 277.496 202.297 277.496C200.761 277.496 199.817 278.696 199.817 280.6Z" fill="white"/>
<path d="M260.425 184.152C259.575 185.173 260.425 188.622 260.425 188.622C259.906 188.345 259.176 188.384 258.55 188.779C257.692 189.321 257.353 190.324 257.794 191.02C258.234 191.717 259.286 191.842 260.144 191.3C260.729 190.932 261.211 190.069 261.231 189.515H261.233C261.233 189.515 260.34 186.521 261.094 185.6C261.941 184.566 265.305 183.694 266.341 184.541C267.437 185.437 266.341 189.642 266.341 189.642C265.821 189.364 265.092 189.404 264.465 189.799C263.607 190.34 263.269 191.344 263.709 192.04C264.149 192.736 265.201 192.861 266.06 192.32C266.644 191.951 267.05 191.306 267.071 190.752C267.071 190.752 268.687 184.328 267.009 182.933C265.722 181.864 261.496 182.866 260.425 184.152Z" fill="#67C4D4"/>
<path d="M283.851 172.108C282.195 169.624 279.977 170.474 279.977 170.474V177.552C279.367 177.308 278.568 177.334 277.811 177.679C276.559 178.253 275.897 179.482 276.331 180.428C276.765 181.376 278.131 181.679 279.382 181.107C280.336 180.669 280.947 179.85 280.99 179.065H280.994V172.118C281.669 171.582 282.75 172.032 283.51 172.48C283.746 172.619 284.004 172.336 283.851 172.108Z" fill="#F4A7AA"/>
<path d="M267.022 175.044L264.321 173.081L261.171 174.19L262.205 171.018L260.176 168.369L263.515 168.371L265.411 165.624L266.441 168.797L269.642 169.749L266.938 171.708L267.022 175.044Z" fill="#F9CA7E"/>
<path d="M388.389 159.134C389.476 160.438 388.389 164.846 388.389 164.846C389.054 164.491 389.986 164.541 390.786 165.046C391.883 165.738 392.316 167.02 391.753 167.91C391.191 168.799 389.845 168.959 388.749 168.267C388.002 167.796 387.385 166.694 387.359 165.986H387.357C387.357 165.986 388.498 162.16 387.535 160.985C386.452 159.662 382.152 158.549 380.828 159.631C379.427 160.776 380.828 166.148 380.828 166.148C381.493 165.793 382.425 165.844 383.225 166.349C384.322 167.041 384.755 168.323 384.192 169.212C383.63 170.102 382.285 170.262 381.188 169.57C380.441 169.099 379.922 168.275 379.895 167.567C379.895 167.567 377.829 159.358 379.974 157.577C381.619 156.211 387.021 157.491 388.389 159.134Z" fill="#67C4D4"/>
<path d="M354.107 142.009C357.98 136.396 363.165 138.317 363.165 138.317V154.313C364.59 153.762 366.459 153.82 368.229 154.599C371.156 155.898 372.704 158.674 371.688 160.812C370.674 162.955 367.481 163.639 364.557 162.347C362.326 161.358 360.898 159.507 360.796 157.733H360.788V142.033C359.209 140.821 356.681 141.837 354.905 142.851C354.352 143.166 353.751 142.525 354.107 142.009Z" fill="#F4A7AA"/>
<path d="M380.768 149L383.621 147.125L386.948 148.185L385.856 145.154L388 142.623L384.472 142.625L382.47 140L381.382 143.032L378 143.941L380.856 145.813L380.768 149Z" fill="#F9CA7E"/>
<path d="M392.343 276.847C392.29 273.682 392.188 270.533 392.039 267.462C392.009 266.848 391.977 266.237 391.944 265.63C391.64 260.163 391.182 254.992 390.566 250.477C390.429 249.474 390.284 248.503 390.132 247.569C389.218 241.963 388.024 237.669 386.547 235.545L386.545 235.543C386.479 235.448 386.404 235.353 386.324 235.259L386.239 235.166C386.181 235.103 386.122 235.04 386.059 234.977L385.945 234.869C385.883 234.812 385.818 234.754 385.751 234.697C385.708 234.661 385.664 234.624 385.619 234.588C385.548 234.532 385.475 234.475 385.399 234.419C385.352 234.384 385.305 234.349 385.256 234.315C385.173 234.256 385.085 234.197 384.996 234.139C384.949 234.108 384.904 234.077 384.856 234.047C384.736 233.971 384.611 233.896 384.481 233.822L384.419 233.785C384.267 233.698 384.108 233.613 383.944 233.528C383.893 233.502 383.839 233.476 383.787 233.45C383.67 233.391 383.552 233.332 383.428 233.274C383.362 233.243 383.292 233.212 383.224 233.18C383.11 233.128 382.993 233.076 382.874 233.024C382.8 232.992 382.724 232.96 382.648 232.928C382.527 232.877 382.404 232.826 382.278 232.776C382.201 232.745 382.123 232.714 382.044 232.683C381.909 232.631 381.771 232.579 381.632 232.527C381.558 232.499 381.485 232.472 381.409 232.444C381.235 232.382 381.057 232.32 380.877 232.258C380.831 232.242 380.788 232.226 380.742 232.211C380.513 232.134 380.278 232.058 380.039 231.982C379.977 231.963 379.914 231.944 379.852 231.925C379.671 231.869 379.49 231.813 379.304 231.758C379.214 231.732 379.123 231.706 379.032 231.679L379 231.67C383.283 204.808 366.591 178.536 339.705 171.407C311.024 163.803 281.601 180.867 273.989 209.52C272.052 216.812 271.717 224.151 272.763 231.168C268.295 232.375 265.143 233.831 263.821 235.545C260.532 239.807 258.902 255.973 258.624 273.395L258.624 273.409C258.607 274.441 258.596 275.478 258.589 276.517C258.588 276.614 258.588 276.711 258.587 276.809C258.584 277.406 258.582 278.003 258.581 278.6C258.581 278.7 258.581 278.799 258.581 278.898C258.581 279.519 258.583 280.141 258.586 280.761C258.587 280.831 258.587 280.9 258.587 280.97C258.594 281.999 258.604 283.028 258.619 284.054C258.621 284.177 258.623 284.3 258.625 284.423C258.634 284.975 258.644 285.527 258.655 286.077C258.658 286.222 258.661 286.368 258.665 286.513C258.676 287.041 258.689 287.567 258.703 288.092C258.707 288.241 258.71 288.39 258.715 288.539C258.733 289.193 258.753 289.845 258.774 290.493L258.776 290.542C258.786 290.847 258.797 291.152 258.808 291.456C258.815 291.654 258.823 291.851 258.83 292.048C258.847 292.492 258.865 292.933 258.884 293.373C258.893 293.583 258.902 293.793 258.911 294.002C258.929 294.401 258.948 294.798 258.967 295.194C258.979 295.441 258.991 295.687 259.003 295.933C259.016 296.187 259.029 296.441 259.043 296.693C259.063 297.071 259.084 297.446 259.106 297.82C259.119 298.062 259.134 298.302 259.148 298.541C259.169 298.883 259.19 299.223 259.211 299.561C259.228 299.815 259.244 300.068 259.261 300.32C259.281 300.607 259.3 300.893 259.32 301.177C259.339 301.446 259.359 301.714 259.378 301.98C259.401 302.291 259.425 302.6 259.449 302.908C259.463 303.095 259.478 303.283 259.493 303.469C259.524 303.86 259.557 304.247 259.589 304.631C259.605 304.806 259.62 304.98 259.635 305.154C259.67 305.544 259.705 305.931 259.741 306.313C259.755 306.463 259.769 306.61 259.784 306.759C259.818 307.116 259.854 307.47 259.89 307.82C259.904 307.957 259.918 308.094 259.933 308.23C259.97 308.584 260.008 308.933 260.047 309.278C260.06 309.395 260.073 309.513 260.086 309.629C260.13 310.014 260.175 310.392 260.221 310.765C260.236 310.883 260.25 311.001 260.265 311.119C260.312 311.492 260.36 311.86 260.408 312.221C260.422 312.322 260.436 312.422 260.45 312.522C260.501 312.896 260.553 313.265 260.606 313.626C260.615 313.685 260.624 313.743 260.633 313.802C260.684 314.143 260.736 314.477 260.789 314.804C260.8 314.87 260.81 314.937 260.821 315.002C260.878 315.35 260.936 315.689 260.995 316.021C261.008 316.097 261.021 316.172 261.035 316.247C261.094 316.574 261.154 316.893 261.215 317.204C261.228 317.271 261.241 317.337 261.254 317.403C261.318 317.72 261.382 318.03 261.447 318.329L261.473 318.443C261.537 318.734 261.602 319.017 261.669 319.291L261.692 319.389C261.761 319.669 261.831 319.938 261.901 320.199C261.915 320.247 261.928 320.296 261.941 320.344C262.011 320.596 262.081 320.838 262.153 321.07C262.167 321.115 262.181 321.159 262.195 321.203C262.268 321.435 262.342 321.659 262.418 321.871L262.448 321.952C262.524 322.164 262.602 322.366 262.681 322.556L262.694 322.587C262.774 322.778 262.855 322.955 262.937 323.122L262.976 323.202C263.056 323.359 263.137 323.504 263.218 323.639L263.264 323.712C263.346 323.843 263.429 323.964 263.514 324.07L263.551 324.115C263.64 324.223 263.729 324.322 263.82 324.403L263.821 324.403C263.893 324.468 263.98 324.532 264.072 324.596L264.147 324.645C264.234 324.702 264.327 324.758 264.429 324.813L264.469 324.835C264.585 324.897 264.712 324.958 264.847 325.018L264.952 325.064C265.07 325.115 265.194 325.165 265.325 325.215L265.41 325.248C265.568 325.307 265.735 325.365 265.91 325.422C265.951 325.435 265.993 325.448 266.034 325.462C266.184 325.509 266.339 325.557 266.501 325.603C266.544 325.616 266.586 325.628 266.63 325.641C266.827 325.697 267.033 325.752 267.247 325.807C267.288 325.817 267.332 325.828 267.374 325.838C267.558 325.884 267.748 325.93 267.944 325.975C268.001 325.988 268.056 326.001 268.114 326.014C268.35 326.068 268.593 326.12 268.845 326.172L268.943 326.192C269.17 326.238 269.405 326.284 269.645 326.329C269.711 326.342 269.777 326.355 269.845 326.367C270.119 326.418 270.399 326.469 270.69 326.518L270.704 326.521C270.99 326.569 271.286 326.618 271.586 326.665C271.66 326.677 271.734 326.688 271.808 326.7C272.097 326.745 272.391 326.79 272.693 326.833L272.759 326.843C273.083 326.89 273.417 326.936 273.756 326.982C273.833 326.992 273.911 327.003 273.989 327.013C274.289 327.053 274.594 327.092 274.904 327.131C274.953 327.137 275.002 327.143 275.051 327.149C275.407 327.193 275.771 327.237 276.14 327.279C276.215 327.288 276.29 327.296 276.365 327.305C276.686 327.341 277.011 327.378 277.342 327.413C277.41 327.42 277.477 327.428 277.546 327.435C277.933 327.477 278.326 327.517 278.725 327.557C278.789 327.563 278.853 327.569 278.917 327.576C279.27 327.611 279.627 327.645 279.989 327.679C280.067 327.686 280.144 327.694 280.222 327.701C280.641 327.74 281.065 327.778 281.496 327.815C281.536 327.819 281.578 327.822 281.619 327.826C282.011 327.859 282.408 327.893 282.809 327.925C282.899 327.932 282.989 327.94 283.08 327.947C283.969 328.019 284.881 328.087 285.813 328.153C285.904 328.16 285.995 328.166 286.087 328.173C287.027 328.238 287.987 328.301 288.966 328.361C289.054 328.367 289.143 328.372 289.232 328.378C289.698 328.406 290.169 328.434 290.643 328.461L290.719 328.465C291.228 328.494 291.742 328.522 292.26 328.55C292.338 328.554 292.417 328.558 292.495 328.562C292.974 328.587 293.456 328.612 293.941 328.636C293.984 328.638 294.027 328.64 294.07 328.642C294.606 328.668 295.146 328.694 295.691 328.719C295.74 328.721 295.789 328.723 295.839 328.725C296.344 328.748 296.852 328.77 297.364 328.792C297.422 328.794 297.48 328.797 297.539 328.799C298.098 328.823 298.66 328.845 299.226 328.867L299.256 328.868C299.799 328.889 300.345 328.909 300.894 328.928C300.935 328.93 300.976 328.932 301.017 328.933L301.017 328.933C334.439 330.11 379.143 328.689 386.547 324.403C386.871 324.216 387.181 323.9 387.478 323.476C387.577 323.334 387.675 323.181 387.771 323.016C387.869 322.848 387.965 322.668 388.06 322.475C388.154 322.284 388.248 322.08 388.339 321.865C388.461 321.576 388.581 321.267 388.698 320.938C388.855 320.495 389.008 320.017 389.155 319.504C389.287 319.043 389.415 318.555 389.54 318.041C389.662 317.536 389.78 317.007 389.894 316.453C390.262 314.668 390.59 312.642 390.878 310.42C390.947 309.88 391.015 309.332 391.08 308.771C391.195 307.779 391.302 306.755 391.402 305.702C391.451 305.175 391.499 304.641 391.545 304.1C391.68 302.513 391.799 300.865 391.902 299.173C391.906 299.105 391.91 299.037 391.914 298.969C392.049 296.71 392.156 294.369 392.233 291.978C392.254 291.345 392.272 290.708 392.289 290.068C392.368 286.979 392.4 283.819 392.385 280.65C392.379 279.383 392.365 278.114 392.343 276.847ZM333.14 225.202C332.995 225.747 332.789 226.258 332.539 226.737C331.915 226.724 331.29 226.713 330.664 226.702L330.568 226.701C330.088 226.693 329.606 226.686 329.125 226.68L329.037 226.678C326.47 226.646 323.895 226.638 321.328 226.654L321.31 226.654C320.809 226.657 320.309 226.661 319.808 226.666L319.74 226.667C319.585 226.668 319.43 226.67 319.275 226.671C318.469 225.092 318.213 223.225 318.705 221.375C319.763 217.392 323.849 215.022 327.836 216.079C331.823 217.136 334.198 221.219 333.14 225.202Z" fill="#FFD186"/>
<path d="M339.704 171.407C311.023 163.803 281.601 180.867 273.989 209.52C272.051 216.812 271.717 224.151 272.762 231.168C274.996 230.564 277.56 230.023 280.39 229.542C281.545 229.346 282.743 229.16 283.982 228.984C285.485 228.771 287.048 228.573 288.66 228.39C289.827 228.257 291.02 228.132 292.237 228.015C294.061 227.839 295.937 227.68 297.857 227.539C299.045 227.451 300.249 227.37 301.467 227.296C302.849 227.211 304.249 227.135 305.664 227.067C310.089 226.855 314.66 226.723 319.275 226.671C318.469 225.092 318.213 223.225 318.704 221.375C319.762 217.392 323.849 215.022 327.836 216.079C331.823 217.136 334.197 221.219 333.139 225.202C332.995 225.747 332.789 226.258 332.539 226.737C333.956 226.767 335.367 226.805 336.77 226.85L336.787 226.85C337.271 226.866 337.754 226.882 338.235 226.899C338.286 226.901 338.336 226.903 338.386 226.905C338.828 226.921 339.268 226.937 339.708 226.955C339.772 226.957 339.835 226.96 339.899 226.962C340.354 226.98 340.808 226.999 341.261 227.019L341.349 227.023C342.839 227.088 344.316 227.162 345.775 227.244L345.824 227.247C345.928 227.253 346.032 227.259 346.136 227.265C346.482 227.285 346.827 227.305 347.171 227.326C347.242 227.33 347.312 227.334 347.383 227.339C347.78 227.363 348.175 227.388 348.569 227.413C348.655 227.419 348.74 227.424 348.825 227.43C349.223 227.456 349.619 227.482 350.013 227.51C350.079 227.514 350.146 227.519 350.212 227.524C350.667 227.555 351.121 227.588 351.571 227.621L351.572 227.622C352.507 227.691 353.431 227.764 354.345 227.841C354.392 227.845 354.438 227.849 354.485 227.853C354.874 227.886 355.261 227.92 355.646 227.954C355.743 227.962 355.839 227.971 355.936 227.98C356.277 228.011 356.616 228.042 356.953 228.073C357.058 228.083 357.163 228.093 357.268 228.103C357.601 228.135 357.932 228.167 358.261 228.2C358.361 228.21 358.46 228.22 358.559 228.229C358.855 228.259 359.15 228.29 359.443 228.32C359.506 228.327 359.569 228.333 359.632 228.34C359.693 228.346 359.754 228.353 359.814 228.359C360.66 228.449 361.493 228.542 362.312 228.639C362.373 228.646 362.433 228.653 362.493 228.66L362.523 228.664C362.851 228.703 363.176 228.742 363.499 228.782C363.61 228.796 363.719 228.81 363.83 228.824C364.111 228.859 364.391 228.895 364.67 228.931C364.792 228.947 364.914 228.963 365.036 228.98C365.306 229.015 365.573 229.052 365.839 229.088C365.955 229.104 366.072 229.12 366.188 229.136C366.473 229.176 366.755 229.216 367.035 229.257C367.126 229.27 367.218 229.283 367.308 229.296C367.593 229.338 367.875 229.381 368.156 229.423C368.609 229.493 369.057 229.563 369.498 229.635C369.571 229.647 369.641 229.659 369.713 229.67C369.991 229.716 370.267 229.762 370.54 229.809C370.648 229.827 370.755 229.846 370.862 229.865C371.097 229.906 371.33 229.947 371.561 229.988C371.608 229.997 371.658 230.005 371.705 230.014C371.774 230.026 371.84 230.039 371.908 230.052C372.129 230.092 372.348 230.133 372.565 230.174C372.679 230.196 372.794 230.218 372.907 230.24C373.129 230.283 373.347 230.326 373.565 230.37C373.666 230.39 373.768 230.41 373.869 230.431C374.132 230.485 374.392 230.539 374.649 230.594C374.697 230.604 374.747 230.614 374.795 230.625C375.103 230.691 375.405 230.758 375.703 230.826C375.769 230.841 375.833 230.857 375.899 230.872C376.126 230.924 376.352 230.977 376.573 231.03C376.67 231.054 376.764 231.077 376.86 231.101C377.046 231.147 377.23 231.192 377.412 231.239C377.516 231.265 377.619 231.292 377.722 231.319C377.894 231.364 378.063 231.409 378.231 231.455C378.331 231.482 378.432 231.509 378.531 231.537C378.689 231.581 378.845 231.625 378.999 231.67C383.283 204.808 366.591 178.535 339.704 171.407Z" fill="#F18A65"/>
<path d="M339.704 171.407C311.023 163.803 281.601 180.867 273.989 209.52C272.051 216.812 271.717 224.151 272.762 231.168C274.996 230.564 277.56 230.023 280.39 229.542C281.545 229.346 282.743 229.16 283.982 228.984C285.485 228.771 287.048 228.573 288.66 228.39C289.827 228.257 291.02 228.132 292.237 228.015C294.061 227.839 295.937 227.68 297.857 227.539C299.045 227.451 300.249 227.37 301.467 227.296C302.849 227.211 304.249 227.135 305.664 227.067C305.117 224.15 305.193 221.069 306.006 218.009C308.925 207.021 320.209 200.477 331.206 203.392C341.77 206.193 348.227 216.703 346.136 227.265C346.482 227.285 346.827 227.305 347.171 227.326C347.242 227.33 347.312 227.334 347.383 227.339C347.78 227.363 348.175 227.388 348.569 227.413C348.655 227.419 348.74 227.424 348.825 227.43C349.223 227.456 349.619 227.483 350.013 227.51C350.079 227.514 350.146 227.519 350.212 227.524C350.667 227.555 351.121 227.588 351.571 227.621L351.572 227.622C352.507 227.691 353.431 227.764 354.345 227.841C354.392 227.845 354.438 227.849 354.485 227.853C354.874 227.886 355.261 227.92 355.646 227.954C355.743 227.962 355.839 227.971 355.936 227.98C356.277 228.011 356.616 228.042 356.953 228.073C357.058 228.083 357.163 228.093 357.268 228.103C357.601 228.135 357.932 228.167 358.261 228.2C358.361 228.21 358.46 228.22 358.559 228.23C358.855 228.259 359.15 228.29 359.443 228.32C359.506 228.327 359.569 228.333 359.632 228.34C359.693 228.346 359.754 228.353 359.814 228.359C360.66 228.449 361.493 228.542 362.312 228.639C362.373 228.646 362.433 228.653 362.493 228.66L362.523 228.664C362.851 228.703 363.176 228.742 363.499 228.782C363.61 228.796 363.719 228.81 363.83 228.824C364.111 228.859 364.391 228.895 364.67 228.931C364.792 228.947 364.914 228.963 365.036 228.98C365.306 229.015 365.573 229.052 365.839 229.088C365.955 229.104 366.072 229.12 366.188 229.136C366.473 229.176 366.755 229.216 367.035 229.257C367.126 229.27 367.218 229.283 367.308 229.296C367.593 229.338 367.875 229.381 368.156 229.424C368.609 229.493 369.057 229.563 369.498 229.635C369.571 229.647 369.641 229.659 369.713 229.67C369.991 229.716 370.267 229.762 370.54 229.809C370.648 229.827 370.755 229.846 370.862 229.865C371.097 229.906 371.33 229.947 371.561 229.988C371.608 229.997 371.658 230.005 371.705 230.014C371.774 230.026 371.84 230.039 371.908 230.052C372.129 230.092 372.348 230.133 372.565 230.175C372.679 230.196 372.794 230.218 372.907 230.24C373.129 230.283 373.347 230.326 373.565 230.37C373.666 230.39 373.768 230.41 373.869 230.431C374.132 230.485 374.392 230.539 374.649 230.594C374.697 230.604 374.747 230.615 374.795 230.625C375.103 230.691 375.405 230.758 375.703 230.826C375.769 230.841 375.833 230.857 375.899 230.872C376.126 230.924 376.352 230.977 376.573 231.03C376.67 231.054 376.764 231.077 376.86 231.101C377.046 231.147 377.23 231.193 377.412 231.239C377.516 231.266 377.619 231.292 377.722 231.319C377.894 231.364 378.063 231.409 378.231 231.455C378.331 231.482 378.432 231.509 378.531 231.537C378.689 231.581 378.845 231.625 378.999 231.67C383.283 204.808 366.591 178.535 339.704 171.407Z" fill="#3E3E3A"/>
<path d="M366.37 200.106C360.451 189.909 350.921 182.596 339.533 179.514C338.575 179.252 337.587 179.82 337.327 180.778C337.067 181.735 337.634 182.722 338.593 182.981C359.055 188.52 371.754 208.906 368.156 229.424C368.609 229.493 369.057 229.563 369.498 229.635C369.571 229.647 369.641 229.659 369.714 229.67C369.991 229.716 370.267 229.762 370.54 229.809C370.648 229.827 370.755 229.846 370.862 229.865C371.097 229.906 371.33 229.947 371.561 229.988C371.609 229.997 371.658 230.005 371.705 230.014C373.517 219.731 371.669 209.238 366.37 200.106Z" fill="white"/>
<path d="M340.352 189.327C339.394 189.065 338.406 189.633 338.146 190.591C337.886 191.548 338.453 192.535 339.411 192.794C354.29 196.822 363.225 212.219 359.329 227.118C359.22 227.537 359.275 227.956 359.443 228.32C359.506 228.327 359.57 228.333 359.633 228.34C359.693 228.346 359.754 228.352 359.814 228.359C360.66 228.449 361.493 228.542 362.313 228.638C362.373 228.646 362.433 228.653 362.493 228.66C362.634 228.476 362.746 228.265 362.809 228.026C367.201 211.228 357.127 193.867 340.352 189.327Z" fill="white"/>
<path d="M339.774 203.159C347.397 205.222 351.975 213.111 349.979 220.746C349.728 221.706 350.304 222.687 351.265 222.938C351.417 222.977 351.57 222.996 351.72 222.996C352.519 222.996 353.248 222.461 353.459 221.653C355.952 212.12 350.235 202.267 340.714 199.691C339.756 199.429 338.768 199.997 338.508 200.955C338.249 201.913 338.815 202.899 339.774 203.159Z" fill="white"/>
<path d="M284.947 213.537C285.197 212.577 284.62 211.596 283.659 211.347C282.698 211.097 281.716 211.673 281.466 212.633C280.008 218.239 279.663 223.962 280.39 229.542C281.545 229.346 282.743 229.16 283.983 228.984C283.324 223.954 283.597 218.725 284.947 213.537Z" fill="white"/>
<path d="M293.071 219.113C293.321 218.153 292.744 217.172 291.783 216.923C290.822 216.672 289.84 217.249 289.59 218.209C288.704 221.618 288.422 225.048 288.661 228.39C289.828 228.257 291.02 228.132 292.238 228.015C292.042 225.091 292.296 222.093 293.071 219.113Z" fill="white"/>
<path d="M300.612 222.376C299.651 222.126 298.669 222.702 298.42 223.663C298.083 224.956 297.903 226.254 297.857 227.539C299.045 227.451 300.249 227.37 301.467 227.296C301.523 226.389 301.664 225.476 301.901 224.566C302.15 223.606 301.573 222.626 300.612 222.376Z" fill="white"/>
<path d="M285.3 239.539C286.757 239.23 287.688 237.799 287.378 236.343C287.069 234.888 285.637 233.96 284.179 234.267C276.209 235.959 271.38 238.219 269.416 241.174C265.882 246.495 264.81 264.191 264.532 278.1C264.502 279.588 265.686 280.818 267.175 280.848L267.23 280.849C268.694 280.849 269.896 279.677 269.926 278.208C270.352 256.86 272.339 246.522 273.911 244.154C274.31 243.554 276.31 241.447 285.3 239.539Z" fill="white"/>
<path d="M258.624 273.395L258.624 273.409C258.607 274.441 258.596 275.478 258.589 276.517C258.588 276.614 258.588 276.711 258.587 276.809C258.584 277.406 258.582 278.003 258.581 278.6C258.581 278.7 258.581 278.799 258.581 278.898C258.581 279.519 258.583 280.14 258.586 280.761C258.587 280.831 258.587 280.9 258.587 280.97C258.594 281.999 258.604 283.028 258.619 284.054C258.621 284.177 258.623 284.3 258.625 284.423C258.634 284.975 258.644 285.527 258.655 286.077C258.658 286.222 258.661 286.368 258.665 286.513C258.676 287.041 258.689 287.567 258.703 288.092C258.707 288.241 258.71 288.39 258.715 288.539C258.733 289.193 258.753 289.845 258.774 290.493L258.776 290.542C258.786 290.847 258.797 291.152 258.808 291.456C258.815 291.654 258.823 291.851 258.83 292.048C258.847 292.492 258.865 292.933 258.884 293.373C258.893 293.583 258.902 293.793 258.911 294.002C258.929 294.401 258.948 294.798 258.967 295.194C258.979 295.441 258.991 295.687 259.003 295.933C259.016 296.187 259.029 296.44 259.043 296.693C259.063 297.071 259.084 297.446 259.106 297.82C259.119 298.062 259.134 298.302 259.148 298.541C259.169 298.883 259.19 299.223 259.211 299.561C259.228 299.815 259.244 300.068 259.261 300.32C259.281 300.607 259.3 300.893 259.32 301.177C259.339 301.446 259.359 301.714 259.378 301.98C259.401 302.291 259.425 302.6 259.449 302.908C259.463 303.095 259.478 303.283 259.493 303.469C259.524 303.86 259.557 304.247 259.589 304.631C259.605 304.806 259.62 304.98 259.635 305.154C259.67 305.544 259.705 305.931 259.741 306.313C259.755 306.463 259.769 306.61 259.784 306.759C259.818 307.116 259.854 307.47 259.89 307.82C259.904 307.957 259.918 308.094 259.933 308.23C259.97 308.584 260.008 308.933 260.047 309.278C260.06 309.395 260.073 309.513 260.086 309.629C260.13 310.014 260.175 310.392 260.221 310.765C260.236 310.883 260.25 311.001 260.265 311.119C260.312 311.492 260.36 311.86 260.408 312.221C260.422 312.322 260.436 312.422 260.45 312.522C260.501 312.896 260.553 313.265 260.606 313.626C260.615 313.685 260.624 313.743 260.633 313.802C260.684 314.143 260.736 314.477 260.789 314.804C260.8 314.87 260.81 314.937 260.821 315.002C260.878 315.35 260.936 315.688 260.995 316.021C261.008 316.097 261.021 316.172 261.035 316.247C261.094 316.574 261.154 316.893 261.215 317.204C261.228 317.271 261.241 317.337 261.254 317.403C261.318 317.72 261.382 318.03 261.447 318.329L261.473 318.443C261.537 318.734 261.602 319.017 261.669 319.291L261.692 319.388C261.761 319.669 261.831 319.938 261.901 320.199C261.915 320.247 261.928 320.296 261.941 320.344C262.011 320.596 262.081 320.837 262.153 321.07C262.167 321.115 262.181 321.159 262.195 321.203C262.268 321.435 262.342 321.659 262.418 321.871L262.448 321.952C262.524 322.164 262.602 322.366 262.681 322.556L262.694 322.587C262.774 322.778 262.855 322.955 262.937 323.122L262.976 323.202C263.056 323.359 263.137 323.504 263.218 323.639L263.264 323.712C263.346 323.843 263.429 323.963 263.514 324.07L263.551 324.115C263.64 324.223 263.729 324.322 263.82 324.403L263.821 324.403C263.893 324.468 263.98 324.532 264.072 324.596L264.147 324.645C264.234 324.702 264.327 324.758 264.429 324.813L264.469 324.835C264.585 324.897 264.712 324.958 264.847 325.018L264.952 325.064C265.07 325.115 265.194 325.165 265.325 325.215L265.41 325.248C265.568 325.307 265.735 325.365 265.91 325.422C265.951 325.435 265.993 325.448 266.034 325.462C266.184 325.509 266.339 325.557 266.501 325.603C266.544 325.616 266.586 325.628 266.63 325.641C266.827 325.697 267.033 325.752 267.247 325.807C267.288 325.817 267.332 325.828 267.374 325.838C267.558 325.884 267.748 325.93 267.944 325.975C268.001 325.988 268.056 326.001 268.114 326.014C268.35 326.067 268.593 326.12 268.845 326.172L268.943 326.192C269.17 326.238 269.405 326.284 269.645 326.329C269.711 326.342 269.777 326.355 269.845 326.367C270.119 326.418 270.399 326.469 270.69 326.518L270.704 326.521C270.99 326.569 271.286 326.617 271.586 326.665C271.66 326.677 271.734 326.688 271.808 326.7C272.097 326.745 272.391 326.789 272.693 326.833L272.759 326.843C273.083 326.89 273.417 326.936 273.756 326.982C273.833 326.992 273.911 327.002 273.989 327.013C274.289 327.053 274.594 327.092 274.904 327.131C274.953 327.137 275.002 327.143 275.051 327.149C275.407 327.193 275.771 327.237 276.14 327.279C276.215 327.288 276.29 327.296 276.365 327.305C276.686 327.341 277.011 327.378 277.342 327.413C277.41 327.42 277.477 327.428 277.546 327.435C277.933 327.477 278.326 327.517 278.725 327.557C278.789 327.563 278.853 327.569 278.917 327.576C279.27 327.611 279.627 327.645 279.989 327.679C280.067 327.686 280.144 327.694 280.222 327.701C280.641 327.74 281.065 327.778 281.496 327.815C281.536 327.819 281.578 327.822 281.619 327.826C282.011 327.859 282.408 327.892 282.809 327.925C282.899 327.932 282.989 327.94 283.08 327.947C283.969 328.019 284.881 328.087 285.813 328.153C285.904 328.16 285.995 328.166 286.087 328.173C287.027 328.238 287.987 328.301 288.966 328.361C289.054 328.367 289.143 328.372 289.232 328.378C289.698 328.406 290.169 328.434 290.643 328.461L290.719 328.465C291.228 328.494 291.742 328.522 292.26 328.55C292.338 328.554 292.417 328.558 292.495 328.562C292.974 328.587 293.456 328.612 293.941 328.636C293.984 328.638 294.027 328.64 294.07 328.642C294.606 328.668 295.146 328.694 295.691 328.718C295.74 328.721 295.789 328.723 295.839 328.725C296.344 328.748 296.852 328.77 297.364 328.792C297.422 328.794 297.48 328.797 297.539 328.799C298.098 328.822 298.66 328.845 299.226 328.867L299.256 328.868C299.799 328.889 300.345 328.909 300.894 328.928C300.935 328.93 300.976 328.932 301.017 328.933L301.017 328.933C295.077 326.571 289.398 323.462 284.124 319.302C268.967 307.946 264.914 289.935 258.624 273.395Z" fill="#EBB864"/>
<path d="M392.343 276.847C392.289 273.682 392.188 270.533 392.039 267.462C392.009 266.848 391.977 266.237 391.943 265.629C391.64 260.163 391.181 254.992 390.565 250.477C390.429 249.474 390.284 248.503 390.132 247.569C389.217 241.963 388.023 237.668 386.546 235.545L386.545 235.543C386.478 235.448 386.404 235.353 386.323 235.259L386.239 235.166C386.181 235.103 386.122 235.04 386.058 234.977L385.944 234.869C385.882 234.812 385.818 234.754 385.751 234.697C385.708 234.661 385.664 234.624 385.619 234.588C385.548 234.532 385.474 234.475 385.399 234.419C385.352 234.384 385.305 234.349 385.256 234.314C385.172 234.256 385.085 234.197 384.996 234.139C384.949 234.108 384.904 234.077 384.856 234.047C384.736 233.971 384.61 233.896 384.481 233.822L384.419 233.785C384.267 233.698 384.108 233.613 383.943 233.528C383.893 233.502 383.839 233.476 383.787 233.45C383.67 233.391 383.551 233.332 383.428 233.274C383.361 233.243 383.292 233.212 383.224 233.18C383.109 233.128 382.993 233.076 382.874 233.024C382.8 232.992 382.724 232.959 382.648 232.928C382.527 232.877 382.403 232.826 382.278 232.776C382.2 232.745 382.123 232.714 382.043 232.683C381.909 232.63 381.771 232.579 381.632 232.527C381.557 232.499 381.484 232.472 381.409 232.444C381.235 232.382 381.057 232.319 380.876 232.258C380.831 232.242 380.787 232.226 380.742 232.211C380.513 232.134 380.278 232.057 380.038 231.982C379.977 231.963 379.913 231.944 379.851 231.924C379.671 231.868 379.489 231.813 379.303 231.758C379.214 231.732 379.122 231.705 379.031 231.679C378.867 231.632 378.7 231.584 378.531 231.537C378.432 231.51 378.332 231.482 378.231 231.455C378.063 231.409 377.894 231.364 377.722 231.319C377.62 231.293 377.517 231.266 377.412 231.239C377.231 231.193 377.046 231.147 376.86 231.101C376.765 231.078 376.67 231.054 376.573 231.031C376.352 230.977 376.126 230.924 375.899 230.872C375.833 230.857 375.769 230.841 375.703 230.826C375.405 230.759 375.103 230.691 374.795 230.625C374.747 230.615 374.698 230.605 374.649 230.594C374.392 230.539 374.133 230.485 373.869 230.431C373.769 230.411 373.666 230.39 373.565 230.37C373.348 230.326 373.129 230.283 372.907 230.24C372.794 230.218 372.68 230.196 372.565 230.175C372.348 230.133 372.129 230.093 371.909 230.052C371.84 230.04 371.774 230.027 371.706 230.014C371.658 230.006 371.609 229.997 371.561 229.989C371.33 229.947 371.097 229.906 370.862 229.865C370.755 229.846 370.648 229.828 370.54 229.809C370.267 229.762 369.992 229.716 369.714 229.671C369.642 229.659 369.571 229.647 369.499 229.635C368.785 229.519 368.054 229.406 367.308 229.297C367.218 229.283 367.126 229.27 367.036 229.257C366.755 229.216 366.473 229.176 366.188 229.136C366.072 229.12 365.956 229.104 365.839 229.088C365.573 229.052 365.306 229.016 365.037 228.98C364.915 228.964 364.792 228.948 364.67 228.932C364.392 228.895 364.112 228.86 363.83 228.824C363.72 228.81 363.61 228.796 363.499 228.782C363.176 228.742 362.851 228.703 362.524 228.664L362.493 228.66C362.433 228.653 362.373 228.646 362.313 228.639C361.493 228.542 360.66 228.449 359.814 228.359C359.754 228.353 359.693 228.347 359.633 228.34C359.277 228.303 358.92 228.266 358.56 228.23C358.461 228.22 358.361 228.21 358.262 228.2C357.932 228.167 357.601 228.135 357.268 228.103C357.164 228.093 357.059 228.083 356.953 228.074C356.616 228.042 356.277 228.011 355.936 227.98C355.84 227.971 355.743 227.963 355.646 227.954C355.261 227.92 354.874 227.886 354.485 227.853C354.438 227.849 354.392 227.845 354.345 227.841C353.432 227.764 352.507 227.691 351.573 227.622L351.572 227.622C351.121 227.588 350.667 227.555 350.212 227.524C350.146 227.519 350.079 227.515 350.013 227.51C349.619 227.483 349.223 227.456 348.826 227.43C348.74 227.424 348.655 227.419 348.57 227.413C348.176 227.388 347.78 227.363 347.384 227.339C347.313 227.334 347.242 227.33 347.171 227.326C346.724 227.299 346.275 227.272 345.824 227.247L345.775 227.244C344.316 227.162 342.839 227.088 341.349 227.023L341.261 227.019C340.808 226.999 340.355 226.981 339.9 226.962C339.836 226.96 339.772 226.957 339.708 226.955C339.268 226.937 338.828 226.921 338.386 226.905C338.336 226.903 338.286 226.901 338.235 226.899C337.754 226.882 337.271 226.866 336.788 226.85L336.77 226.85C334.749 226.785 332.71 226.736 330.664 226.702L330.568 226.701C330.087 226.693 329.606 226.686 329.125 226.68L329.037 226.679C326.47 226.646 323.894 226.638 321.328 226.654L321.31 226.654C320.809 226.657 320.309 226.661 319.808 226.666L319.74 226.667C317.173 226.693 314.618 226.743 312.093 226.818C331.748 230.992 351.184 237.301 364.098 255.196C379.058 275.253 388.182 300.16 386.17 324.601C386.304 324.536 386.431 324.47 386.547 324.403C386.979 324.153 387.386 323.676 387.771 323.016C387.869 322.848 387.965 322.668 388.06 322.475C388.155 322.283 388.248 322.08 388.339 321.865C388.461 321.576 388.581 321.267 388.698 320.938C388.855 320.494 389.008 320.017 389.155 319.504C389.287 319.043 389.415 318.555 389.54 318.041C389.662 317.536 389.78 317.007 389.894 316.453C390.263 314.668 390.59 312.642 390.878 310.42C390.947 309.88 391.015 309.332 391.08 308.771C391.195 307.779 391.302 306.755 391.402 305.702C391.451 305.175 391.499 304.641 391.545 304.1C391.681 302.513 391.799 300.865 391.902 299.172C391.906 299.105 391.91 299.037 391.914 298.969C392.049 296.71 392.156 294.369 392.233 291.978C392.254 291.345 392.272 290.708 392.289 290.068C392.368 286.979 392.4 283.819 392.385 280.65C392.378 279.383 392.364 278.114 392.343 276.847Z" fill="#F9DDB0"/>
<path d="M329.136 265.461C331.285 259.933 341.561 271.075 341.561 271.075C340.159 262.313 335.727 257.921 331.771 256.587C328.554 255.503 325.653 250.687 324.953 252.943C323.056 259.06 324.953 287.814 324.953 287.814C322.445 286.811 319.157 286.916 316.043 288.335C310.893 290.699 308.168 295.752 309.956 299.644C311.74 303.544 317.358 304.789 322.504 302.438C326.429 300.637 328.943 297.269 329.122 294.039H329.136C329.136 294.039 327.785 268.935 329.136 265.461Z" fill="#F18A65"/>
</g>
<rect x="16.5" y="337.5" width="395" height="123" rx="7.5" stroke="#25F4EE" stroke-dasharray="5 5"/>
<g clip-path="url(#clip2_3303_6954)">
<path d="M216.402 371.667C216.402 371.5 216.324 371.342 216.19 371.241C216.057 371.14 215.884 371.108 215.723 371.154L208.256 373.287C208.027 373.352 207.869 373.562 207.869 373.8V381.03C207.546 380.838 207.178 380.735 206.802 380.733C205.624 380.733 204.669 381.689 204.669 382.867C204.669 384.045 205.624 385 206.802 385C207.981 385 208.936 384.045 208.936 382.867V376.336L215.336 374.507V378.897C215.013 378.705 214.645 378.602 214.269 378.6C213.091 378.6 212.136 379.555 212.136 380.733C212.136 381.912 213.091 382.867 214.269 382.867C215.447 382.867 216.402 381.912 216.402 380.733V371.667ZM206.802 383.933C206.213 383.933 205.736 383.456 205.736 382.867C205.736 382.278 206.213 381.8 206.802 381.8C207.391 381.8 207.869 382.278 207.869 382.867C207.869 383.456 207.391 383.933 206.802 383.933ZM208.936 375.226V374.202L215.336 372.374V373.398L208.936 375.226ZM214.269 381.8C213.68 381.8 213.202 381.322 213.202 380.733C213.202 380.144 213.68 379.667 214.269 379.667C214.858 379.667 215.336 380.144 215.336 380.733C215.336 381.322 214.858 381.8 214.269 381.8Z" fill="#25F4EE"/>
<path d="M222.802 380.227V361.533C222.802 361.239 222.563 361 222.269 361H206.269C206.258 361 206.248 361.006 206.236 361.007C206.189 361.009 206.142 361.019 206.098 361.034C206.081 361.04 206.065 361.044 206.048 361.052C205.99 361.078 205.937 361.114 205.892 361.158L199.492 367.558C199.447 367.604 199.411 367.657 199.385 367.715C199.378 367.731 199.374 367.748 199.368 367.764C199.352 367.809 199.343 367.855 199.34 367.902C199.34 367.914 199.333 367.924 199.333 367.935V392.467C199.333 392.761 199.572 393 199.867 393H222.269C225.679 392.971 228.467 390.274 228.61 386.867C228.752 383.46 226.198 380.54 222.802 380.227ZM205.736 362.821V367.4H201.156L205.736 362.821ZM218.735 391.933H200.402V368.467H206.269C206.563 368.467 206.802 368.228 206.802 367.933V362.067H221.736V380.222C221.714 380.222 221.693 380.228 221.672 380.23C221.582 380.238 221.495 380.253 221.405 380.265C221.286 380.281 221.167 380.297 221.049 380.318C220.96 380.336 220.872 380.358 220.782 380.38C220.67 380.407 220.558 380.433 220.449 380.466C220.36 380.492 220.274 380.523 220.187 380.553C220.08 380.589 219.974 380.626 219.872 380.668C219.786 380.703 219.702 380.741 219.618 380.78C219.518 380.825 219.419 380.872 219.322 380.922C219.24 380.965 219.162 381.011 219.079 381.058C218.985 381.111 218.892 381.167 218.801 381.226C218.723 381.277 218.647 381.329 218.571 381.383C218.483 381.445 218.398 381.509 218.313 381.576C218.24 381.634 218.168 381.692 218.099 381.753C218.018 381.823 217.939 381.895 217.862 381.966C217.794 382.031 217.728 382.096 217.663 382.163C217.589 382.24 217.518 382.32 217.447 382.401C217.386 382.47 217.325 382.54 217.267 382.614C217.2 382.698 217.137 382.785 217.074 382.873C217.02 382.948 216.967 383.022 216.914 383.1C216.854 383.191 216.799 383.285 216.744 383.379C216.697 383.459 216.65 383.539 216.607 383.619C216.554 383.717 216.509 383.818 216.462 383.919C216.424 384.001 216.384 384.083 216.349 384.167C216.306 384.274 216.268 384.38 216.231 384.491C216.201 384.574 216.169 384.657 216.143 384.742C216.108 384.858 216.081 384.978 216.052 385.097C216.032 385.178 216.009 385.257 215.992 385.34C215.966 385.475 215.948 385.613 215.93 385.751C215.92 385.82 215.906 385.889 215.899 385.96C215.851 386.421 215.856 386.886 215.915 387.347C215.924 387.423 215.938 387.498 215.949 387.574C215.976 387.745 216.008 387.914 216.048 388.08C216.067 388.162 216.087 388.241 216.11 388.323C216.157 388.49 216.211 388.653 216.27 388.814C216.294 388.88 216.316 388.947 216.343 389.012C216.432 389.233 216.533 389.448 216.647 389.657C216.66 389.681 216.675 389.703 216.689 389.726C216.792 389.91 216.904 390.088 217.025 390.26C217.068 390.322 217.115 390.382 217.161 390.443C217.26 390.573 217.363 390.701 217.472 390.823C217.525 390.884 217.578 390.944 217.632 391.003C217.751 391.128 217.876 391.247 218.005 391.363C218.053 391.405 218.098 391.451 218.148 391.492C218.328 391.645 218.516 391.787 218.712 391.919C218.723 391.924 218.729 391.929 218.735 391.933ZM222.269 391.933C219.323 391.933 216.936 389.546 216.936 386.6C216.936 383.654 219.323 381.267 222.269 381.267C225.214 381.267 227.602 383.654 227.602 386.6C227.599 389.544 225.213 391.93 222.269 391.933Z" fill="#25F4EE"/>
<path d="M222.646 383.023C222.596 382.974 222.537 382.934 222.472 382.908C222.342 382.854 222.195 382.854 222.065 382.908C222 382.934 221.941 382.974 221.891 383.023L219.629 385.285C219.427 385.495 219.43 385.827 219.636 386.033C219.841 386.239 220.174 386.242 220.383 386.04L221.735 384.688V389.8C221.735 390.095 221.974 390.333 222.269 390.333C222.563 390.333 222.802 390.095 222.802 389.8V384.688L224.154 386.04C224.363 386.242 224.696 386.239 224.902 386.033C225.107 385.827 225.11 385.495 224.908 385.285L222.646 383.023Z" fill="#25F4EE"/>
</g>
<path d="M118.338 418V409.208H115.286V408.13H122.622V409.208H119.57V418H118.338ZM127.908 418L127.488 416.824H127.418C126.998 417.636 126.172 418.168 125.192 418.168C123.708 418.168 122.742 417.328 122.742 416.054C122.742 414.85 123.652 414.01 125.304 413.786L127.432 413.492V412.974C127.432 412.022 126.9 411.406 125.822 411.406C124.87 411.406 124.31 411.784 124.072 412.652L122.952 412.33C123.274 411.14 124.394 410.426 125.836 410.426C127.712 410.426 128.622 411.392 128.622 413.002V416.502L129.168 418H127.908ZM123.96 416.026C123.96 416.768 124.492 417.216 125.416 417.216C126.634 417.216 127.432 416.32 127.432 414.92V414.36L125.612 414.612C124.492 414.752 123.96 415.228 123.96 416.026ZM124.534 407.682V406.912C124.94 406.716 125.444 406.59 125.934 406.59C126.928 406.59 127.572 407.164 127.572 408.032C127.572 408.662 127.208 409.18 126.466 409.656H125.248C126.144 409.012 126.536 408.578 126.536 408.144C126.536 407.738 126.228 407.416 125.626 407.416C125.29 407.416 124.856 407.514 124.534 407.682ZM130.749 418V410.594H131.939V418H130.749ZM130.581 408.438C130.581 407.976 130.931 407.654 131.365 407.654C131.799 407.654 132.135 407.976 132.135 408.438C132.135 408.886 131.799 409.208 131.365 409.208C130.931 409.208 130.581 408.886 130.581 408.438ZM137.79 418V407.71H138.98V418H137.79ZM144.165 418.168C141.967 418.168 140.665 416.614 140.665 414.262C140.665 411.966 142.135 410.426 144.109 410.426C146.097 410.426 147.385 411.728 147.385 413.842C147.385 414.108 147.371 414.388 147.357 414.542H141.897C141.967 416.222 142.751 417.174 144.249 417.174C145.145 417.174 145.817 416.824 146.237 416.054L147.189 416.516C146.685 417.608 145.663 418.168 144.165 418.168ZM141.841 409.656L143.451 407.346H144.851L146.461 409.656H145.285L144.151 408.004L143.017 409.656H141.841ZM141.911 413.66H146.209C146.167 412.204 145.341 411.378 144.095 411.378C142.933 411.378 142.051 412.05 141.911 413.66ZM153.886 413.268C153.886 412.022 153.186 411.448 152.192 411.448C151.002 411.448 150.218 412.26 150.218 413.52V418H149.028V410.594H150.134V411.91H150.176C150.568 411 151.38 410.426 152.5 410.426C154.096 410.426 155.076 411.336 155.076 413.128V418H153.886V413.268ZM163.529 418.14C162.283 418.14 161.625 417.482 161.625 416.068V411.504H160.253V410.594H161.625V408.928L162.815 408.172V410.594H164.523V411.504H162.815V415.942C162.815 416.754 163.165 417.132 163.795 417.132C163.991 417.132 164.243 417.104 164.523 416.964V417.944C164.201 418.098 163.893 418.14 163.529 418.14ZM168.898 418.168C166.7 418.168 165.398 416.614 165.398 414.262C165.398 411.966 166.868 410.426 168.842 410.426C170.83 410.426 172.118 411.728 172.118 413.842C172.118 414.108 172.104 414.388 172.09 414.542H166.63C166.7 416.222 167.484 417.174 168.982 417.174C169.878 417.174 170.55 416.824 170.97 416.054L171.922 416.516C171.418 417.608 170.396 418.168 168.898 418.168ZM166.574 409.656L168.184 407.346H169.584L171.194 409.656H170.018L168.884 408.004L167.75 409.656H166.574ZM166.644 413.66H170.942C170.9 412.204 170.074 411.378 168.828 411.378C167.666 411.378 166.784 412.05 166.644 413.66ZM167.988 420.24C167.988 419.806 168.338 419.456 168.758 419.456C169.192 419.456 169.542 419.806 169.542 420.24C169.542 420.66 169.192 421.01 168.758 421.01C168.338 421.01 167.988 420.66 167.988 420.24ZM173.761 420.8V410.594H174.881V412.022H174.937C175.259 411.14 176.239 410.426 177.387 410.426C179.319 410.426 180.593 411.938 180.593 414.304C180.593 416.67 179.333 418.168 177.387 418.168C176.253 418.168 175.329 417.412 175.021 416.53H174.951V420.8H173.761ZM174.881 414.304C174.881 415.97 175.819 417.16 177.149 417.16C178.521 417.16 179.361 416.068 179.361 414.304C179.361 412.54 178.521 411.434 177.149 411.434C175.749 411.434 174.881 412.54 174.881 414.304ZM190.799 418L190.379 416.824H190.309C189.889 417.636 189.063 418.168 188.083 418.168C186.599 418.168 185.633 417.328 185.633 416.054C185.633 414.85 186.543 414.01 188.195 413.786L190.323 413.492V412.974C190.323 412.022 189.791 411.406 188.713 411.406C187.761 411.406 187.201 411.784 186.963 412.652L185.843 412.33C186.165 411.14 187.285 410.426 188.727 410.426C190.603 410.426 191.513 411.392 191.513 413.002V416.502L192.059 418H190.799ZM186.431 409.656L188.041 407.346H189.441L191.051 409.656H189.875L188.741 408.004L187.607 409.656H186.431ZM186.851 416.026C186.851 416.768 187.383 417.216 188.307 417.216C189.525 417.216 190.323 416.32 190.323 414.92V414.36L188.503 414.612C187.383 414.752 186.851 415.228 186.851 416.026ZM193.64 418V410.594H194.732V411.812H194.802C195.18 410.916 195.936 410.426 196.916 410.426C197.952 410.426 198.68 410.93 199.03 411.812H199.1C199.478 410.944 200.276 410.426 201.27 410.426C202.586 410.426 203.594 411.252 203.594 413.03V418H202.404V413.142C202.404 412.064 201.844 411.448 200.85 411.448C199.814 411.448 199.212 412.148 199.212 413.366V418H198.022V413.142C198.022 412.078 197.462 411.448 196.524 411.448C195.474 411.448 194.83 412.218 194.83 413.478V418H193.64ZM212.064 418.14C210.818 418.14 210.16 417.482 210.16 416.068V411.504H208.788V410.594H210.16V408.928L211.35 408.172V410.594H213.058V411.504H211.35V415.942C211.35 416.754 211.7 417.132 212.33 417.132C212.526 417.132 212.778 417.104 213.058 416.964V417.944C212.736 418.098 212.428 418.14 212.064 418.14ZM214.53 418V407.71H215.72V411.77H215.776C216.154 410.944 216.952 410.426 218.002 410.426C219.598 410.426 220.578 411.336 220.578 413.128V418H219.388V413.268C219.388 412.022 218.688 411.448 217.694 411.448C216.504 411.448 215.72 412.162 215.72 413.52V418H214.53ZM227.371 418L226.951 416.824H226.881C226.461 417.636 225.635 418.168 224.655 418.168C223.171 418.168 222.205 417.328 222.205 416.054C222.205 414.85 223.115 414.01 224.767 413.786L226.895 413.492V412.974C226.895 412.022 226.363 411.406 225.285 411.406C224.333 411.406 223.773 411.784 223.535 412.652L222.415 412.33C222.737 411.14 223.857 410.426 225.299 410.426C227.175 410.426 228.085 411.392 228.085 413.002V416.502L228.631 418H227.371ZM223.423 416.026C223.423 416.768 223.955 417.216 224.879 417.216C226.097 417.216 226.895 416.32 226.895 414.92V414.36L225.075 414.612C223.955 414.752 223.423 415.228 223.423 416.026ZM235.07 413.268C235.07 412.022 234.37 411.448 233.376 411.448C232.186 411.448 231.402 412.26 231.402 413.52V418H230.212V410.594H231.318V411.91H231.36C231.752 411 232.564 410.426 233.684 410.426C235.28 410.426 236.26 411.336 236.26 413.128V418H235.07V413.268ZM238.265 418V407.71H239.455V411.77H239.511C239.889 410.944 240.687 410.426 241.737 410.426C243.333 410.426 244.313 411.336 244.313 413.128V418H243.123V413.268C243.123 412.022 242.423 411.448 241.429 411.448C240.239 411.448 239.455 412.162 239.455 413.52V418H238.265ZM253.465 417.16C254.837 417.16 255.677 416.054 255.677 414.29C255.677 412.526 254.837 411.434 253.465 411.434C252.135 411.434 251.197 412.624 251.197 414.29C251.197 416.054 252.065 417.16 253.465 417.16ZM250.077 418V407.71H251.267V412.064H251.337C251.645 411.182 252.569 410.426 253.703 410.426C255.649 410.426 256.909 411.924 256.909 414.29C256.909 416.656 255.635 418.168 253.703 418.168C252.555 418.168 251.575 417.454 251.253 416.572H251.197V418H250.077ZM263.355 418L262.935 416.824H262.865C262.445 417.636 261.619 418.168 260.639 418.168C259.155 418.168 258.189 417.328 258.189 416.054C258.189 414.85 259.099 414.01 260.751 413.786L262.879 413.492V412.974C262.879 412.022 262.347 411.406 261.269 411.406C260.317 411.406 259.757 411.784 259.519 412.652L258.399 412.33C258.721 411.14 259.841 410.426 261.283 410.426C263.159 410.426 264.069 411.392 264.069 413.002V416.502L264.615 418H263.355ZM259.407 416.026C259.407 416.768 259.939 417.216 260.863 417.216C262.081 417.216 262.879 416.32 262.879 414.92V414.36L261.059 414.612C259.939 414.752 259.407 415.228 259.407 416.026ZM260.597 420.24C260.597 419.806 260.947 419.456 261.367 419.456C261.801 419.456 262.151 419.806 262.151 420.24C262.151 420.66 261.801 421.01 261.367 421.01C260.947 421.01 260.597 420.66 260.597 420.24ZM271.054 413.268C271.054 412.022 270.354 411.448 269.36 411.448C268.17 411.448 267.386 412.26 267.386 413.52V418H266.196V410.594H267.302V411.91H267.344C267.736 411 268.548 410.426 269.668 410.426C271.264 410.426 272.244 411.336 272.244 413.128V418H271.054V413.268ZM278.009 418V410.594H279.101V411.812H279.171C279.549 410.916 280.305 410.426 281.285 410.426C282.321 410.426 283.049 410.93 283.399 411.812H283.469C283.847 410.944 284.645 410.426 285.639 410.426C286.955 410.426 287.963 411.252 287.963 413.03V418H286.773V413.142C286.773 412.064 286.213 411.448 285.219 411.448C284.183 411.448 283.581 412.148 283.581 413.366V418H282.391V413.142C282.391 412.078 281.831 411.448 280.893 411.448C279.843 411.448 279.199 412.218 279.199 413.478V418H278.009ZM292.883 418.168C290.993 418.168 289.915 417.202 289.915 415.116V410.594H291.105V415.102C291.105 416.53 291.819 417.146 292.883 417.146C293.933 417.146 294.661 416.53 294.661 415.102V410.594H295.851V415.116C295.851 417.202 294.759 418.168 292.883 418.168ZM300.969 418.168C298.953 418.168 297.441 416.684 297.441 414.304C297.441 411.924 298.953 410.426 300.969 410.426C302.971 410.426 304.497 411.924 304.497 414.304C304.497 416.684 302.971 418.168 300.969 418.168ZM298.659 409.656L300.269 407.878H301.669L303.279 409.656H302.061L300.969 408.466L299.877 409.656H298.659ZM298.673 414.304C298.673 416.278 299.723 417.16 300.969 417.16C302.215 417.16 303.251 416.278 303.251 414.304C303.251 412.33 302.215 411.434 300.969 411.434C299.723 411.434 298.673 412.33 298.673 414.304ZM302.411 408.046L303.825 406.31H305.127L303.643 408.046H302.411ZM311.017 413.268C311.017 412.022 310.317 411.448 309.323 411.448C308.133 411.448 307.349 412.26 307.349 413.52V418H306.159V410.594H307.265V411.91H307.307C307.699 411 308.511 410.426 309.631 410.426C311.227 410.426 312.207 411.336 312.207 413.128V418H311.017V413.268ZM187.714 434.14C186.468 434.14 185.81 433.482 185.81 432.068V427.504H184.438V426.594H185.81V424.928L187 424.172V426.594H188.708V427.504H187V431.942C187 432.754 187.35 433.132 187.98 433.132C188.176 433.132 188.428 433.104 188.708 432.964V433.944C188.386 434.098 188.078 434.14 187.714 434.14ZM190.181 434V426.594H191.287V428.022H191.329C191.581 427.056 192.337 426.426 193.275 426.426C193.457 426.426 193.639 426.454 193.751 426.496V427.574C193.625 427.546 193.443 427.532 193.233 427.532C192.141 427.532 191.371 428.358 191.371 429.534V434H190.181ZM194.966 434V426.594H196.156V434H194.966ZM194.966 425.656L196.506 423.346H197.78L196.17 425.656H194.966ZM201.257 434.168C199.325 434.168 197.841 432.754 197.841 430.29C197.841 427.826 199.325 426.426 201.215 426.426C202.615 426.426 203.609 426.972 204.113 428.26L203.091 428.708C202.699 427.826 202.097 427.434 201.187 427.434C200.109 427.434 199.073 428.274 199.073 430.29C199.073 432.32 200.123 433.16 201.229 433.16C202.153 433.16 202.755 432.754 203.133 431.858L204.141 432.292C203.651 433.566 202.671 434.168 201.257 434.168ZM205.507 434V423.71H206.697V427.77H206.753C207.131 426.944 207.929 426.426 208.979 426.426C210.575 426.426 211.555 427.336 211.555 429.128V434H210.365V429.268C210.365 428.022 209.665 427.448 208.671 427.448C207.481 427.448 206.697 428.162 206.697 429.52V434H205.507ZM222.051 434L220.007 430.794H219.937L217.907 434H216.563L219.167 430.094L216.871 426.594H218.215L219.951 429.394H220.007L221.687 426.594H223.031L220.763 430.08L223.395 434H222.051ZM227.532 434.168C225.642 434.168 224.564 433.202 224.564 431.116V426.594H225.754V431.102C225.754 432.53 226.468 433.146 227.532 433.146C228.582 433.146 229.31 432.53 229.31 431.102V426.594H230.5V431.116C230.5 433.202 229.408 434.168 227.532 434.168ZM237.256 434L236.836 432.824H236.766C236.346 433.636 235.52 434.168 234.54 434.168C233.056 434.168 232.09 433.328 232.09 432.054C232.09 430.85 233 430.01 234.652 429.786L236.78 429.492V428.974C236.78 428.022 236.248 427.406 235.17 427.406C234.218 427.406 233.658 427.784 233.42 428.652L232.3 428.33C232.622 427.14 233.742 426.426 235.184 426.426C237.06 426.426 237.97 427.392 237.97 429.002V432.502L238.516 434H237.256ZM232.888 425.656L234.498 423.878H235.898L237.508 425.656H236.29L235.198 424.466L234.106 425.656H232.888ZM233.308 432.026C233.308 432.768 233.84 433.216 234.764 433.216C235.982 433.216 236.78 432.32 236.78 430.92V430.36L234.96 430.612C233.84 430.752 233.308 431.228 233.308 432.026ZM236.64 424.046L238.054 422.31H239.356L237.872 424.046H236.64ZM242.579 434.14C241.333 434.14 240.675 433.482 240.675 432.068V427.504H239.303V426.594H240.675V424.928L241.865 424.172V426.594H243.573V427.504H241.865V431.942C241.865 432.754 242.215 433.132 242.845 433.132C243.041 433.132 243.293 433.104 243.573 432.964V433.944C243.251 434.098 242.943 434.14 242.579 434.14Z" fill="white"/>
<line x1="16" y1="490.25" x2="191" y2="490.25" stroke="#A6A6A6" stroke-width="0.5"/>
<path d="M207.599 494V490.67H203.859V494H202.979V486.95H203.859V489.91H207.599V486.95H208.479V494H207.599ZM212.239 494.12C210.799 494.12 209.719 493.06 209.719 491.36C209.719 489.66 210.799 488.59 212.239 488.59C213.669 488.59 214.759 489.66 214.759 491.36C214.759 493.06 213.669 494.12 212.239 494.12ZM210.599 491.36C210.599 492.77 211.349 493.4 212.239 493.4C213.129 493.4 213.869 492.77 213.869 491.36C213.869 489.95 213.129 489.31 212.239 489.31C211.349 489.31 210.599 489.95 210.599 491.36ZM219.366 494L219.066 493.16H219.016C218.716 493.74 218.126 494.12 217.426 494.12C216.366 494.12 215.676 493.52 215.676 492.61C215.676 491.75 216.326 491.15 217.506 490.99L219.026 490.78V490.41C219.026 489.73 218.646 489.29 217.876 489.29C217.196 489.29 216.796 489.56 216.626 490.18L215.826 489.95C216.056 489.1 216.856 488.59 217.886 488.59C219.226 488.59 219.876 489.28 219.876 490.43V492.93L220.266 494H219.366ZM216.276 486.39H216.956C216.956 487.06 217.316 487.43 217.896 487.43C218.476 487.43 218.826 487.06 218.826 486.39H219.506C219.506 487.41 218.876 488.04 217.896 488.04C216.906 488.04 216.276 487.41 216.276 486.39ZM216.546 492.59C216.546 493.12 216.926 493.44 217.586 493.44C218.456 493.44 219.026 492.8 219.026 491.8V491.4L217.726 491.58C216.926 491.68 216.546 492.02 216.546 492.59ZM217.396 495.6C217.396 495.29 217.646 495.04 217.946 495.04C218.256 495.04 218.506 495.29 218.506 495.6C218.506 495.9 218.256 496.15 217.946 496.15C217.646 496.15 217.396 495.9 217.396 495.6ZM223.545 494.12C222.165 494.12 221.105 493.11 221.105 491.35C221.105 489.59 222.165 488.59 223.515 488.59C224.515 488.59 225.225 488.98 225.585 489.9L224.855 490.22C224.575 489.59 224.145 489.31 223.495 489.31C222.725 489.31 221.985 489.91 221.985 491.35C221.985 492.8 222.735 493.4 223.525 493.4C224.185 493.4 224.615 493.11 224.885 492.47L225.605 492.78C225.255 493.69 224.555 494.12 223.545 494.12Z" fill="#A6A6A6"/>
<line x1="237" y1="490.25" x2="412" y2="490.25" stroke="#A6A6A6" stroke-width="0.5"/>
<path d="M17.148 533V523.13H19.99C23.126 523.13 25.03 524.964 25.03 528.058C25.03 531.18 23.126 533 19.99 533H17.148ZM18.38 531.936H19.962C22.398 531.936 23.742 530.536 23.742 528.072C23.742 525.608 22.398 524.194 19.962 524.194H18.38V531.936ZM31.6131 533L31.1931 531.824H31.1231C30.7031 532.636 29.8771 533.168 28.8971 533.168C27.4131 533.168 26.4471 532.328 26.4471 531.054C26.4471 529.85 27.3571 529.01 29.0091 528.786L31.1371 528.492V527.974C31.1371 527.022 30.6051 526.406 29.5271 526.406C28.5751 526.406 28.0151 526.784 27.7771 527.652L26.6571 527.33C26.9791 526.14 28.0991 525.426 29.5411 525.426C31.4171 525.426 32.3271 526.392 32.3271 528.002V531.502L32.8731 533H31.6131ZM27.6651 531.026C27.6651 531.768 28.1971 532.216 29.1211 532.216C30.3391 532.216 31.1371 531.32 31.1371 529.92V529.36L29.3171 529.612C28.1971 529.752 27.6651 530.228 27.6651 531.026ZM28.9531 524.656L30.4931 522.346H31.7671L30.1571 524.656H28.9531ZM39.312 528.268C39.312 527.022 38.612 526.448 37.618 526.448C36.428 526.448 35.644 527.26 35.644 528.52V533H34.454V525.594H35.56V526.91H35.602C35.994 526 36.806 525.426 37.926 525.426C39.522 525.426 40.502 526.336 40.502 528.128V533H39.312V528.268ZM46.3785 533V523.13H47.6105V531.922H52.2025V533H46.3785ZM53.4579 533V525.594H54.6479V533H53.4579ZM53.2899 523.438C53.2899 522.976 53.6399 522.654 54.0739 522.654C54.5079 522.654 54.8439 522.976 54.8439 523.438C54.8439 523.886 54.5079 524.208 54.0739 524.208C53.6399 524.208 53.2899 523.886 53.2899 523.438ZM61.5971 528.268C61.5971 527.022 60.8971 526.448 59.9031 526.448C58.7131 526.448 57.9291 527.26 57.9291 528.52V533H56.7391V525.594H57.8451V526.91H57.8871C58.2791 526 59.0911 525.426 60.2111 525.426C61.8071 525.426 62.7871 526.336 62.7871 528.128V533H61.5971V528.268ZM64.7919 533V522.71H65.9819V529.206H66.0519L69.4399 525.594H70.8119L67.9419 528.66L70.9519 533H69.6079L67.1159 529.374L65.9819 530.508V533H64.7919ZM78.4398 533V524.208H75.3878V523.13H82.7238V524.208H79.6718V533H78.4398ZM84.0008 533V525.594H85.1908V533H84.0008ZM83.8328 523.438C83.8328 522.976 84.1828 522.654 84.6168 522.654C85.0508 522.654 85.3868 522.976 85.3868 523.438C85.3868 523.886 85.0508 524.208 84.6168 524.208C84.1828 524.208 83.8328 523.886 83.8328 523.438ZM87.2821 533V522.71H88.4721V529.206H88.5421L91.9301 525.594H93.3021L90.4321 528.66L93.4421 533H92.0981L89.6061 529.374L88.4721 530.508V533H87.2821ZM97.3803 533.14C96.1343 533.14 95.4763 532.482 95.4763 531.068V526.504H94.1043V525.594H95.4763V523.928L96.6663 523.172V525.594H98.3743V526.504H96.6663V530.942C96.6663 531.754 97.0163 532.132 97.6463 532.132C97.8423 532.132 98.0943 532.104 98.3743 531.964V532.944C98.0523 533.098 97.7443 533.14 97.3803 533.14ZM102.777 533.168C100.761 533.168 99.2491 531.684 99.2491 529.304C99.2491 526.924 100.761 525.426 102.777 525.426C104.779 525.426 106.305 526.924 106.305 529.304C106.305 531.684 104.779 533.168 102.777 533.168ZM100.481 529.304C100.481 531.278 101.531 532.16 102.777 532.16C104.023 532.16 105.059 531.278 105.059 529.304C105.059 527.33 104.023 526.434 102.777 526.434C101.531 526.434 100.481 527.33 100.481 529.304ZM107.968 533V522.71H109.158V529.206H109.228L112.616 525.594H113.988L111.118 528.66L114.128 533H112.784L110.292 529.374L109.158 530.508V533H107.968Z" fill="white"/>
<rect x="16" y="548" width="396" height="37" rx="8" fill="white" fill-opacity="0.1"/>
<path d="M29.4742 571V562.54H31.2982L34.8982 570.328H34.9462V562.54H35.9542V571H34.1302L30.5302 563.212H30.4822V571H29.4742ZM37.8275 571V562.18H38.8475V565.66H38.8955C39.2195 564.952 39.9035 564.508 40.8035 564.508C42.1715 564.508 43.0115 565.288 43.0115 566.824V571H41.9915V566.944C41.9915 565.876 41.3915 565.384 40.5395 565.384C39.5195 565.384 38.8475 565.996 38.8475 567.16V571H37.8275ZM48.8338 571L48.4738 569.992H48.4138C48.0538 570.688 47.3458 571.144 46.5058 571.144C45.2338 571.144 44.4058 570.424 44.4058 569.332C44.4058 568.3 45.1858 567.58 46.6018 567.388L48.4258 567.136V566.692C48.4258 565.876 47.9698 565.348 47.0458 565.348C46.2298 565.348 45.7498 565.672 45.5458 566.416L44.5858 566.14C44.8618 565.12 45.8218 564.508 47.0578 564.508C48.6658 564.508 49.4458 565.336 49.4458 566.716V569.716L49.9138 571H48.8338ZM45.0898 563.848L46.4698 561.868H47.6698L49.0498 563.848H48.0418L47.0698 562.432L46.0978 563.848H45.0898ZM45.4498 569.308C45.4498 569.944 45.9058 570.328 46.6978 570.328C47.7418 570.328 48.4258 569.56 48.4258 568.36V567.88L46.8658 568.096C45.9058 568.216 45.4498 568.624 45.4498 569.308ZM46.4698 572.92C46.4698 572.548 46.7698 572.248 47.1298 572.248C47.5018 572.248 47.8018 572.548 47.8018 572.92C47.8018 573.28 47.5018 573.58 47.1298 573.58C46.7698 573.58 46.4698 573.28 46.4698 572.92ZM51.2689 573.4V564.652H52.2289V565.876H52.2769C52.5529 565.12 53.3929 564.508 54.3769 564.508C56.0329 564.508 57.1249 565.804 57.1249 567.832C57.1249 569.86 56.0449 571.144 54.3769 571.144C53.4049 571.144 52.6129 570.496 52.3489 569.74H52.2889V573.4H51.2689ZM52.2289 567.832C52.2289 569.26 53.0329 570.28 54.1729 570.28C55.3489 570.28 56.0689 569.344 56.0689 567.832C56.0689 566.32 55.3489 565.372 54.1729 565.372C52.9729 565.372 52.2289 566.32 52.2289 567.832ZM65.1289 571.204C63.0769 571.204 61.8649 569.896 61.8649 568.06V562.54H62.9809V567.976C62.9809 569.296 63.7609 570.232 65.1289 570.232C66.4729 570.232 67.2289 569.296 67.2289 567.976V562.54H68.3449V568.06C68.3449 569.896 67.1449 571.204 65.1289 571.204ZM70.3141 571V562.54H73.4461C75.1501 562.54 76.3141 563.44 76.3141 564.952C76.3141 566.248 75.4381 567.112 74.1181 567.304L76.5061 571H75.2821L72.9901 567.376H71.3701V571H70.3141ZM71.3701 566.536H73.2901C74.4901 566.536 75.2341 566.068 75.2341 564.976C75.2341 563.884 74.4901 563.428 73.2901 563.428H71.3701V566.536ZM78.0719 571V562.54H79.1279V570.076H83.0639V571H78.0719Z" fill="#A6A6A6"/>
<rect x="16" y="765" width="396" height="47" rx="8" fill="#FE2C55"/>
<path d="M158.67 794.5V785.204H155.614V783.22H164.158V785.204H161.118V794.5H158.67ZM164.673 794.5V785.924H166.849V787.62H166.945C167.233 786.484 168.129 785.732 169.233 785.732C169.441 785.732 169.617 785.764 169.745 785.796V787.94C169.537 787.86 169.265 787.844 168.881 787.844C167.761 787.844 167.041 788.596 167.041 789.764V794.5H164.673ZM171.079 794.5V785.924H173.447V794.5H171.079ZM171.191 784.836L173.047 781.988H175.303L173.319 784.836H171.191ZM179.308 794.692C176.86 794.692 175.084 792.932 175.084 790.212C175.084 787.492 176.844 785.732 179.292 785.732C181.18 785.732 182.476 786.516 183.02 788.084L181.004 788.772C180.7 787.908 180.156 787.476 179.324 787.476C178.284 787.476 177.468 788.388 177.468 790.212C177.468 792.036 178.284 792.964 179.34 792.964C180.188 792.964 180.732 792.5 181.02 791.604L183.036 792.292C182.508 793.876 181.212 794.692 179.308 794.692ZM184.329 794.5V782.74H186.697V787.14H186.777C187.241 786.26 188.105 785.732 189.193 785.732C190.921 785.732 192.041 786.74 192.041 788.932V794.5H189.673V789.268C189.673 788.132 189.145 787.572 188.281 787.572C187.305 787.572 186.697 788.196 186.697 789.364V794.5H184.329ZM203.503 794.5L201.759 791.22H201.679L199.887 794.5H197.247L200.047 790.052L197.519 785.924H200.207L201.631 788.772H201.743L203.167 785.924H205.807L203.311 790.004L206.143 794.5H203.503ZM210.963 794.692C208.595 794.692 207.187 793.588 207.187 791.188V785.924H209.555V791.108C209.555 792.276 210.035 792.852 210.963 792.852C211.827 792.852 212.371 792.276 212.371 791.108V785.924H214.739V791.188C214.739 793.588 213.251 794.692 210.963 794.692ZM222.031 794.5L221.631 793.332H221.519C221.055 794.196 220.207 794.692 219.103 794.692C217.423 794.692 216.319 793.684 216.319 792.18C216.319 790.756 217.263 789.764 219.503 789.476L221.535 789.204V788.708C221.535 787.94 221.071 787.396 220.159 787.396C219.391 787.396 218.911 787.716 218.703 788.484L216.591 788.052C217.023 786.532 218.479 785.732 220.255 785.732C222.703 785.732 223.839 786.964 223.839 788.9V792.9L224.431 794.5H222.031ZM217.135 784.836L219.071 782.548H221.487L223.423 784.836H221.439L220.287 783.476L219.119 784.836H217.135ZM218.575 792.036C218.575 792.692 219.023 793.14 219.855 793.14C220.847 793.14 221.535 792.436 221.535 791.188V790.5L220.079 790.708C219.071 790.852 218.575 791.268 218.575 792.036ZM222.319 782.788L224.127 780.5H226.399L224.479 782.788H222.319ZM229.157 794.66C227.493 794.66 226.597 793.828 226.597 792.228V787.54H225.253V785.924H226.597V784.26L228.965 783.236V785.924H230.565V787.54H228.965V791.924C228.965 792.548 229.269 792.852 229.829 792.852C230.037 792.852 230.277 792.82 230.565 792.74V794.404C230.085 794.596 229.653 794.66 229.157 794.66ZM241.439 789.268C241.439 788.132 240.911 787.572 240.047 787.572C239.071 787.572 238.463 788.244 238.463 789.364V794.5H236.095V785.924H238.271V787.396H238.367C238.799 786.388 239.743 785.732 240.959 785.732C242.687 785.732 243.807 786.74 243.807 788.932V794.5H241.439V789.268ZM249.461 797.892C247.477 797.892 245.989 797.268 245.333 795.7L247.493 795.012C247.861 795.844 248.549 796.18 249.445 796.18C250.789 796.18 251.445 795.38 251.445 793.956V792.756H251.349C250.789 793.748 249.877 794.308 248.773 794.308C246.757 794.308 245.317 792.532 245.317 790.02C245.317 787.492 246.773 785.732 248.837 785.732C249.989 785.732 250.901 786.276 251.429 787.236H251.525V785.924H253.765V793.828C253.765 796.5 252.069 797.892 249.461 797.892ZM247.765 790.036C247.765 791.54 248.453 792.58 249.637 792.58C250.837 792.58 251.525 791.524 251.525 790.036C251.525 788.516 250.837 787.476 249.637 787.476C248.453 787.476 247.765 788.516 247.765 790.036ZM261.156 794.5L260.756 793.332H260.644C260.18 794.196 259.332 794.692 258.228 794.692C256.548 794.692 255.444 793.684 255.444 792.18C255.444 790.756 256.388 789.764 258.628 789.476L260.66 789.204V788.708C260.66 787.94 260.196 787.396 259.284 787.396C258.516 787.396 258.036 787.716 257.828 788.484L255.716 788.052C256.148 786.532 257.604 785.732 259.38 785.732C261.828 785.732 262.964 786.964 262.964 788.9V792.9L263.556 794.5H261.156ZM257.7 792.036C257.7 792.692 258.148 793.14 258.98 793.14C259.972 793.14 260.66 792.436 260.66 791.188V790.5L259.204 790.708C258.196 790.852 257.7 791.268 257.7 792.036ZM266.241 797.7L267.201 795.076L263.841 785.924H266.337L268.289 792.612H268.417L270.209 785.924H272.705L268.561 797.7H266.241Z" fill="white"/>
<g clip-path="url(#clip3_3303_6954)">
<rect x="147" y="911" width="134" height="5" rx="2.5" fill="#E9E9E9"/>
</g>
</g>
<defs>
<clipPath id="clip0_3303_6954">
<rect width="428" height="926" fill="white"/>
</clipPath>
<clipPath id="clip1_3303_6954">
<rect width="396" height="194" fill="white" transform="translate(16 119)"/>
</clipPath>
<clipPath id="clip2_3303_6954">
<rect width="32" height="32" fill="white" transform="translate(198 361)"/>
</clipPath>
<clipPath id="clip3_3303_6954">
<rect width="428" height="35" fill="white" transform="translate(0 891)"/>
</clipPath>
</defs>
</svg>
